<?xml version="1.0" encoding="UTF-8" standalone="no"?>
<svg
   width="20.000048mm"
   height="19.999695mm"
   version="1.1"
   viewBox="0 0 20.000048 19.999695"
   id="svg2727"
   sodipodi:docname="AXA.svg"
   inkscape:version="1.2.2 (b0a8486, 2022-12-01)"
   xmlns:inkscape="http://www.inkscape.org/namespaces/inkscape"
   xmlns:sodipodi="http://sodipodi.sourceforge.net/DTD/sodipodi-0.dtd"
   xmlns="http://www.w3.org/2000/svg"
   xmlns:svg="http://www.w3.org/2000/svg"
   xmlns:rdf="http://www.w3.org/1999/02/22-rdf-syntax-ns#"
   xmlns:cc="http://creativecommons.org/ns#"
   xmlns:dc="http://purl.org/dc/elements/1.1/">
  <defs
     id="defs2731" />
  <sodipodi:namedview
     pagecolor="#ffffff"
     bordercolor="#666666"
     borderopacity="1"
     objecttolerance="10"
     gridtolerance="10"
     guidetolerance="10"
     inkscape:pageopacity="0"
     inkscape:pageshadow="2"
     inkscape:window-width="1680"
     inkscape:window-height="997"
     id="namedview2729"
     showgrid="false"
     fit-margin-top="0"
     fit-margin-left="0"
     fit-margin-right="0"
     fit-margin-bottom="0"
     inkscape:zoom="9.7234375"
     inkscape:cx="39.440784"
     inkscape:cy="37.795276"
     inkscape:window-x="0"
     inkscape:window-y="25"
     inkscape:window-maximized="1"
     inkscape:current-layer="svg2727"
     inkscape:showpageshadow="2"
     inkscape:pagecheckerboard="0"
     inkscape:deskcolor="#d1d1d1"
     inkscape:document-units="mm" />
  <metadata
     id="metadata2717">
    <rdf:RDF>
      <cc:Work
         rdf:about="">
        <dc:format>image/svg+xml</dc:format>
        <dc:type
           rdf:resource="http://purl.org/dc/dcmitype/StillImage" />
      </cc:Work>
    </rdf:RDF>
  </metadata>
  <g
     transform="matrix(0.62449072,0,0,0.62720522,-76.211049,-31.544876)"
     id="g2725">
    <g
       transform="matrix(0.070555,0,0,0.070555,128.05,56.238)"
       id="g2723">
      <rect
         class="cls-1"
         x="0.0024999999"
         y="0.0024999999"
         width="283.45999"
         height="283.45999"
         fill="#00008f"
         id="rect2719" />
      <polygon
         id="switch"
         class="cls-2"
         points="267.54,0 159.38,139.99 175.66,139.99 283.47,0 "
         fill="#ff1721" />
      <path
         id="axa"
         class="cls-3"
         d="m 216.6,202.46 c 4.941,13.823 15.122,49.795 19.17,52.661 h -26.728 a 44.571,44.571 0 0 0 -1.2545,-9.4335 c -1.1525,-4.1115 -10.82,-35.215 -10.82,-35.215 h -42.456 l -6.675,9.463 c 0,0 8.0175,25.098 8.5155,26.328 0.8645,2.217 4.6925,8.8575 4.6925,8.8575 h -25.615 c 0,0 -0.664,-3.833 -0.913,-5.4295 -0.2005,-1.289 -2.427,-8.3495 -2.427,-8.3495 0,0 -5.8055,6.362 -7.3875,9.3115 -1.597,2.944 -2.305,4.4675 -2.305,4.4675 h -20.039 c 0,0 -0.669,-3.833 -0.918,-5.4295 -0.195,-1.289 -2.6465,-8.916 -2.6465,-8.916 0,0 -5.61,6.8115 -7.207,9.7555 -1.587,2.9495 -2.2705,4.59 -2.2705,4.59 H 69.497 c 0,0 5.6005,-5.332 7.5585,-7.622 3.3005,-3.882 15.6,-19.956 15.6,-19.956 L 87.724,210.472 H 45.59 c 0,0 -24.024,31.568 -24.97,32.544 -0.957,0.962 -7.959,11.011 -8.1155,12.104 h -12.5 v -7.949 a 5.9865,5.9865 0 0 1 0.493,-0.4785 c 0.386,-0.2835 18.213,-22.412 34.59,-44.234 14.717,-19.028 28.526,-37.534 29.736,-39.297 2.9345,-4.2625 7.163,-13.466 7.163,-13.466 h 21.782 c 0,0 0.674,8.4665 1.309,10.522 0.566,1.8165 13.838,45.362 14.15,45.83 l 7.339,-9.385 -12.544,-38.614 c 0,0 -2.9395,-7.2655 -3.8965,-8.354 h 25.444 a 22.166,22.166 0 0 0 0.83,6.9185 c 1.035,3.184 6.4895,22.866 6.4895,22.866 0,0 17.354,-21.753 18.369,-23.316 a 14.1,14.1 0 0 0 2.1435,-6.4695 h 21.201 c 0,0 -3.8815,2.8365 -10.684,11.44 -2.285,2.8955 -24.673,31.348 -24.673,31.348 0,0 1.9535,6.66 2.9055,9.9755 0.259,0.952 0.4395,1.5965 0.4395,1.665 0,0.0295 0.493,-0.576 1.3425,-1.665 5.7765,-7.3195 32.051,-41.772 33.643,-44.722 1.284,-2.3825 3.1735,-5.0925 4.282,-8.0415 h 20.683 c 0,0 0.4785,6.1765 1.1085,7.8855 z m -31.475,-32.612 c -3.037,6.5335 -20.913,28.296 -20.913,28.296 h 28.31 c 0,0 -5.488,-16.9 -6.445,-20.708 a 30.233,30.233 0 0 1 -0.557,-7.4025 c -2e-5,-0.3465 -0.0635,-0.908 -0.3955,-0.1855 z m -108.77,0 c -3.037,6.5335 -20.913,28.296 -20.913,28.296 h 28.31 c 0,0 -5.483,-16.9 -6.44,-20.708 a 30.233,30.233 0 0 1 -0.557,-7.4025 c 0,-0.3465 -0.068,-0.908 -0.40051,-0.1855 z m 42.622,65.986 7.793,-10.703 c -0.718,-0.77152 -5.1075,-14.082 -5.1075,-14.082 l -7.5345,9.775 z"
         fill="#ffffff" />
    </g>
  </g>
</svg>
