<svg xmlns="http://www.w3.org/2000/svg" xmlns:xlink="http://www.w3.org/1999/xlink" xml:space="preserve" style="enable-background:new 0 0 652 652" viewBox="0 0 652 652"><path d="M70.5 71.7h499.8v500H70.5z" style="fill:#1c79be"/><defs><path id="a" d="M70.5 71.6h499.8v500H70.5z"/></defs><clipPath id="b"><use xlink:href="#a" style="overflow:visible"/></clipPath><path d="M328.5 207.7c11.9 0 18.2-5.4 22.1-11.6l-.2.9c-1.1 5.8 3.6 9.4 8 9.4h3.8l10.6-62.3h-13.1l-1.8 9.5c-2.4-4.9-9.1-10.8-19.9-10.8-19.1 0-30.4 16.2-32.4 33.5-2.1 19.8 10.3 31.4 22.9 31.4m11.4-54.7c22 1.3 14.9 44.7-7.5 43.4-20.3-1.2-14-44.6 7.5-43.4m-181.2-13.1c0-14.1-8.7-20.6-24.2-20.6h-29.8l-15 87.1H117c6.2 0 12.2-.2 15.5-.9 15.3-3.3 21.5-14.8 22.8-23.2 1.7-11.7-5.4-19.4-13.6-21.3 6.1-1.4 17-7.9 17-21.1m-32 55.8c-1.7.4-4.4.7-10.1.7h-10l5-29.2h14.7c19.5 0 17.7 24.1.4 28.5m5.8-39.7c-1.9.6-4.4.8-8.9.8h-10.2l4.8-27.9h13.3c15.9 0 14.7 22.4 1 27.1m84.2-11.8h-4s-5.8 34.2-6.4 38.1c-1.4 8.4-5.3 14.1-16.3 14.1-6.2 0-12.3-3.9-10.9-12.6.6-3.4 4.7-28.2 5.1-30.2 1.2-6.7-4.4-9.4-9-9.4h-3.5c-.8 5.2-4.7 27.1-6.1 35.7-.6 3.4-.8 6.9-.6 9.2 1.3 11.6 11.2 18.7 23.4 18.7 21.1 0 29.1-11.4 31.6-24.9.8-4.4 4.8-27 5.1-29.3 1-6.8-4.3-9.4-8.4-9.4m21.8 86.8 6.1-34.4c2.4 4.9 9.2 11.1 20 11.1 19.5 0 31.6-15.7 32.8-34.1 1.3-19.5-9.8-30.8-22.7-30.8-11.2 0-18.8 5.6-22.7 11.4l.2-.8c1.2-6-3.8-9.4-8-9.4H240s-11.4 67-12.9 75.1c-1.8 9.5 5.6 11.7 8 11.7h3.4zm31.8-76.9c20.2 1.1 13.9 44.7-7.6 43.5-22-1.3-14.9-44.8 7.6-43.5m269.5 85.1c-5.7 0-13.3-.3-17.9-1.9-5.4-1.9-10.2-5.7-15.2-9.7-2.5-2-5.2-4.1-8-6-3.5-2.4-6.3-3.5-9.1-3.5-3.7 0-7.3 2.1-11.6 6.7-5.9 6.2-10.5 13.8-14.2 19.6-.2.3-.6.8-1.1.8-.9 0-1-1.3-1-1.6-.2-16.3-2.6-104.9-4.4-131.4-.8-11.7-4.3-19-9.2-19-4 0-9.9 5.4-13.6 20.7-9.4 38.9-29.6 125.4-38.2 169.3-.2 1.2-1.6 1.2-1.8 0-1-4.5-1.8-9.6-2.6-13.9-2.6-13.6-4.8-25.2-9.2-31.7-5-7.3-12.5-7.8-21.5-1.6-2 1.4-3.9 3-5.9 4.9-5.8 5.1-12.3 11-23.2 11h-97.4l-2.6 14.5H335c11.4 0 22-6.8 28.3-11.5 3.2-2.4 5.5-3.7 7.2-3.7 2.5 0 3.6 2.6 4.5 6.4.5 1.9 1 4.5 1.6 7.5 2.1 10 5.3 25.8 9.3 36.3 1.9 4.9 4.7 7.6 7.9 7.6 4.9 0 9.9-5.9 12.7-15.2 3.8-12.3 26.4-113.2 35.9-155.5.4-1.7.6-2.7.6-2.8.2-.7.6-1.2 1.2-1.2.5 0 1.1.4 1.1 1.4v.2c.7 42.8 2.8 117.9 5.9 125.6 1.7 4.3 4.3 6.5 7.6 6.5 3.8 0 8.3-3.1 11.5-8 1.6-2.4 3.7-5.6 5.9-9 5.4-8.3 6.7-11 8.5-13 2.7-2.9 5.8-3 10.2.1.6.5 1.4 1 2.3 1.7 4.7 3.5 12.5 8.3 21.3 10.8 5.8 1.7 13.3 2 18.6 2 3.4 0 7-.1 8.1-.2l2.4-13.4c-1.2.1-4.6.2-7.8.2" style="clip-path:url(#b);fill:#fff"/></svg>