<svg id="Calque_1" data-name="Calque 1" xmlns="http://www.w3.org/2000/svg" viewBox="0 0 242.93 154.79"><defs><style>.cls-1{fill:#e73140;}.cls-2{fill:#f39223;}.cls-3{fill:#475760;}</style></defs><title>covea 4 colour logo - no margins</title><path class="cls-1" d="M99.33,94.76a128.63,128.63,0,0,1-33.64,4.79q-15.88,0-28.19-5.84A47.28,47.28,0,0,1,18.25,77.89a39,39,0,0,1-6.91-22.71q0-19.12,15.65-31.81T64.74,10.71a130.57,130.57,0,0,1,34.59,5V29.28Q81,22.64,66.47,22.62A44.25,44.25,0,0,0,48.36,26.4,28.18,28.18,0,0,0,35.25,38.19a33.07,33.07,0,0,0-4.6,16.52q0,11.2,8.9,21.5t28,10.28a98.46,98.46,0,0,0,11.29-.65q5.57-.65,20.53-4.68v13.6" transform="translate(-11.34 -10.37)"/><path class="cls-1" d="M135.29,78.63Q127,70,127.06,54.72c0-10,2.73-17.95,8.23-23.73s12.86-8.72,22.19-8.72,16.64,2.91,22.11,8.72,8.2,13.71,8.2,23.73q0,15.27-8.2,23.91c-5.47,5.76-12.86,8.65-22.11,8.65s-16.72-2.89-22.19-8.65m58.24,7.93Q207.09,74,207.1,54.72t-13.57-31.8Q180,10.4,157.48,10.37T121.34,22.92q-13.59,12.6-13.57,31.8t13.57,31.84Q134.89,99.2,157.48,99.2t36.05-12.64" transform="translate(-11.34 -10.37)"/><polyline class="cls-2" points="30.83 152.77 0.13 96.34 12.88 96.34 37.24 141.14 61.87 96.34 73.64 96.34 42.71 152.77 30.83 152.77"/><path class="cls-2" d="M98.94,117.8a19.42,19.42,0,0,1,12.38-4.09c4.73,0,8.45,1.32,11.32,4s4.22,6.26,4.22,10.74v1.36H91.67q2.06-8,7.27-12m39.67,33.37q-13.76,6-25.13,6a25.79,25.79,0,0,1-11.39-2.4A19.23,19.23,0,0,1,94,147.58,19.74,19.74,0,0,1,91,136.88h48.61v-2c0-9.92-2.52-17.24-7.61-22s-11.83-7.14-20.2-7.14a37.31,37.31,0,0,0-17.23,4,29.47,29.47,0,0,0-12,11,28,28,0,0,0-4.31,14.82,27.09,27.09,0,0,0,4.53,15,30.29,30.29,0,0,0,12,10.83,37.92,37.92,0,0,0,17.11,3.75,74.22,74.22,0,0,0,26.69-5.42Z" transform="translate(-11.34 -10.37)"/><path class="cls-2" d="M150,67.73a102.56,102.56,0,0,0,18.09-11.45c8.88-7.14,12.8-12.35,12.8-12.35H161.17s-8.52,9.78-15.2,15.22c-5.87,4.78-11.63,8.58-11.63,8.58H150" transform="translate(-11.34 -10.37)"/><path class="cls-2" d="M181.21,151.26q-6.6,4.43-12.06,4.42a11.86,11.86,0,0,1-8.9-4.21q-3.93-4.25-3.92-12.57c0-7.64,2.36-13.69,7.16-18.15s10.77-6.66,18-6.66A56.59,56.59,0,0,1,193,115.4v24a45.3,45.3,0,0,1-11.75,11.87m13.66,11.91h12.19c-1.55-4.26-2.3-9.8-2.3-16.68V106.75H193c-1.34-.08-2.33-.16-3-.23-4.48-.36-7.86-.54-10.07-.54-7.71,0-14.16,1.51-19.37,4.48a34.22,34.22,0,0,0-12.49,12.2,33,33,0,0,0-4.69,17.43c0,8.29,2.36,14.44,7,18.51a23.47,23.47,0,0,0,15.82,6.07,32.56,32.56,0,0,0,13.82-3.55,34.67,34.67,0,0,0,12.85-10.68,81.93,81.93,0,0,0,2,12.73" transform="translate(-11.34 -10.37)"/><path class="cls-3" d="M224.46,163.22v-3.89h29.32v3.89Z" transform="translate(-11.34 -10.37)"/><path class="cls-3" d="M236.3,152.18v-.25a9.48,9.48,0,0,1-4.5-7.71,5.93,5.93,0,0,1,6.2-6h15.78v3.89H238.49c-2.07,0-3.29,1.22-3.29,3,0,3,2.27,5.31,4.67,6.81h13.91v3.89H232.29v-3.89Z" transform="translate(-11.34 -10.37)"/><path class="cls-3" d="M249.44,135.61a15.63,15.63,0,0,0,1.91-6.57c0-1.86-1-4-3.17-4-4.54,0-3.16,10.42-10.38,10.42-4.06,0-6-3-6-7.42a30.54,30.54,0,0,1,.65-5.27h3.24a17.65,17.65,0,0,0-1,5.23c0,1.7.73,3.81,2.75,3.81,4,0,3.33-10.66,10.27-10.66,4.5,0,6.53,4,6.53,8.07a22.54,22.54,0,0,1-1.22,6.36Z" transform="translate(-11.34 -10.37)"/><path class="cls-3" d="M253.78,105.17l-4-.25v.25a9.48,9.48,0,0,1,4.5,7.7,5.93,5.93,0,0,1-6.21,6H232.29V115h15.29c2.06,0,3.28-1.22,3.28-3,0-3-2.27-5.31-4.67-6.81h-13.9v-3.9h21.49Z" transform="translate(-11.34 -10.37)"/><path class="cls-3" d="M236.3,93.88v-.25a7.68,7.68,0,0,1-4.5-6.81V85.64h3.73a5.22,5.22,0,0,0-.33,1.75c0,2.83,2,5,4.42,6.24h14.16v3.9H232.29v-3.9Z" transform="translate(-11.34 -10.37)"/><path class="cls-3" d="M253.66,66.58a7.19,7.19,0,0,1,.61,2.88,3.62,3.62,0,0,1-3.21,3.62,9.74,9.74,0,0,1,3.21,6.61c0,3.53-2.36,6.28-5.92,6.28-3.9,0-7.3-3.36-7.3-10.87V73.56h-1.47c-3.08,0-4.86.41-4.86,4a15.07,15.07,0,0,0,1.9,6.57h-3.2a19.13,19.13,0,0,1-1.62-7.51c0-4.5,2.11-6.93,6.37-6.93h9.57c1.58,0,3.81.12,3.73-2.07v-.73Zm-10.3,6.67v1.87c0,2.31,1,6.65,4.42,6.65a3.38,3.38,0,0,0,3.32-3.53,8.08,8.08,0,0,0-2.19-5Z" transform="translate(-11.34 -10.37)"/><path class="cls-3" d="M236.3,61.49v-.24a9.51,9.51,0,0,1-4.5-7.71,5.93,5.93,0,0,1,6.2-6h15.78v3.89H238.49c-2.07,0-3.29,1.22-3.29,3,0,3,2.27,5.32,4.67,6.82h13.91v3.89H232.29V61.25Z" transform="translate(-11.34 -10.37)"/><path class="cls-3" d="M235.77,29a18,18,0,0,0-1.05,5.68c0,4.67,4.22,6.57,8.35,6.57,4.38,0,8.28-2.07,8.28-6.89A12.14,12.14,0,0,0,250,28.8h3.12a22.83,22.83,0,0,1,1.14,6.37c0,8.8-7.71,10.26-11.24,10.26-4.82,0-11.23-2.19-11.23-10.26a31.28,31.28,0,0,1,.69-6.13Z" transform="translate(-11.34 -10.37)"/><path class="cls-3" d="M243.64,23.83c4.5-.12,7.71-2.52,7.71-7.22a13.93,13.93,0,0,0-1.43-6.13h3.13a23,23,0,0,1,1.22,7.22C254.27,26.5,246.56,28,243,28c-5.6,0-11.23-3.09-11.23-9.25,0-6.78,6.28-8.44,11.84-8.24ZM241,14.62c-2.93-.08-6.25.81-6.25,4.34,0,3.33,3.36,4.58,6.25,4.75Z" transform="translate(-11.34 -10.37)"/></svg>