<?xml version="1.0" encoding="UTF-8"?>
<svg width="155px" height="61px" viewBox="0 0 155 61" version="1.1" xmlns="http://www.w3.org/2000/svg" xmlns:xlink="http://www.w3.org/1999/xlink">
    <!-- Generator: Sketch 58 (84663) - https://sketch.com -->
    <title>Exeter_Logo</title>
    <desc>Created with Sketch.</desc>
    <defs>
        <polygon id="path-1" points="0.131061111 0.838792958 10.5796111 0.838792958 10.5796111 19.2350183 0.131061111 19.2350183"></polygon>
    </defs>
    <g id="Symbols" stroke="none" stroke-width="1" fill="none" fill-rule="evenodd">
        <g id="996Navigation" transform="translate(-20.000000, -63.000000)">
            <g id="Exeter_Logo">
                <g transform="translate(20.000000, 63.000000)">
                    <g id="Group-24">
                        <polygon id="Fill-1" fill="#6D5560" points="50.6538278 1.0785831 50.6538278 5.72145634 58.4692722 5.72145634 58.4692722 27.3592732 63.7806056 27.3592732 63.7806056 5.72145634 71.6391056 5.72145634 71.6391056 1.0785831"></polygon>
                        <g id="Group-23" transform="translate(0.000000, 0.101294)">
                            <path d="M73.6107917,0.758290141 L78.922125,0.758290141 L78.922125,10.5698394 L79.0977917,10.5698394 C80.0639583,9.25619155 81.7327917,8.37985352 84.2782361,8.37985352 C88.756875,8.37985352 91.6105972,11.5776282 91.6105972,16.5710366 L91.6105972,27.2142479 L86.3414583,27.2142479 L86.3414583,17.0521634 C86.3414583,14.7745437 84.8930694,12.9789099 82.6541806,12.9789099 C80.3722361,12.9789099 79.053875,14.7745437 78.922125,16.4834028 L78.922125,27.2580648 L73.6107917,27.2580648 L73.6107917,0.758290141 Z" id="Fill-2" fill="#6D5560"></path>
                            <path d="M98.6141,15.9135254 L105.989517,15.9135254 C105.769933,13.6797225 104.541128,12.3652155 102.389211,12.3652155 C100.457739,12.3652155 99.0532667,13.5044549 98.6141,15.9135254 L98.6141,15.9135254 Z M110.203794,25.549807 C110.203794,25.549807 107.964906,27.7836099 103.268406,27.7836099 C97.0770167,27.7836099 93.3897389,23.6227225 93.3897389,18.0596944 C93.3897389,12.5404831 97.0770167,8.42341268 102.520961,8.42341268 C107.92185,8.42341268 111.126044,12.0584972 111.126044,17.5777085 C111.126044,18.1035113 111.082128,19.0236662 111.082128,19.0236662 L98.48235,19.0236662 C98.7897667,22.1767648 100.677322,23.6227225 103.618878,23.6227225 C106.516517,23.6227225 108.360156,22.089131 108.360156,22.089131 L110.203794,25.549807 Z" id="Fill-4" fill="#6D5560"></path>
                            <polygon id="Fill-6" fill="#6D5560" points="68.1064833 48.4460282 56.6037611 48.4460282 56.6037611 54.9730282 70.2566778 54.9730282 70.2566778 59.6159014 51.2924278 59.6159014 51.2924278 33.3343521 70.2566778 33.3343521 70.2566778 37.9772254 56.6037611 37.9772254 56.6037611 44.1536901 68.1064833 44.1536901"></polygon>
                            <polygon id="Fill-8" fill="#6D5560" points="77.6299417 50.2419197 71.7468306 41.2190746 77.6738583 41.2190746 81.0106639 47.0003282 81.1415528 47.0003282 84.4783583 41.2190746 90.3614694 41.2190746 84.1718028 50.2419197 90.5810528 59.6153 84.654025 59.6153 81.1415528 53.3958775 81.0106639 53.3958775 77.4103583 59.6153 71.5281083 59.6153"></polygon>
                            <path d="M95.5589639,48.2706746 L102.934381,48.2706746 C102.714797,46.0368718 101.485131,44.7232239 99.334075,44.7232239 C97.4026028,44.7232239 95.9981306,45.8616042 95.5589639,48.2706746 L95.5589639,48.2706746 Z M107.148658,57.9069563 C107.148658,57.9069563 104.909769,60.1407592 100.212408,60.1407592 C94.0218806,60.1407592 90.3346028,55.9798718 90.3346028,50.4168437 C90.3346028,44.8984915 94.0218806,40.780562 99.465825,40.780562 C104.865853,40.780562 108.070908,44.4156465 108.070908,49.9348577 C108.070908,50.4606606 108.026992,51.3808155 108.026992,51.3808155 L95.4272139,51.3808155 C95.7346306,54.5339141 97.6221861,55.9798718 100.563742,55.9798718 C103.461381,55.9798718 105.305019,54.4471394 105.305019,54.4471394 L107.148658,57.9069563 Z" id="Fill-10" fill="#6D5560"></path>
                            <path d="M112.416678,41.218731 L112.416678,35.6118859 L117.684094,35.6118859 L117.684094,41.218731 L122.20665,41.218731 L122.20665,45.2919845 L117.684094,45.2919845 L117.684094,53.5269845 C117.684094,54.7976746 118.298928,55.5417028 119.660344,55.5417028 C120.713483,55.5417028 121.635733,54.9282662 121.635733,54.9282662 L123.128039,58.5642099 C122.337539,59.1338296 120.4939,60.0531254 118.387622,60.0531254 C114.128567,60.0531254 112.416678,57.3820127 112.416678,53.7022521 L112.416678,45.2919845 L109.211622,45.2919845 L109.211622,41.218731 L112.416678,41.218731 Z" id="Fill-12" fill="#6D5560"></path>
                            <path d="M129.010719,48.2706746 L136.385275,48.2706746 C136.166553,46.0368718 134.936886,44.7232239 132.785831,44.7232239 C130.854358,44.7232239 129.449886,45.8616042 129.010719,48.2706746 L129.010719,48.2706746 Z M140.600414,57.9069563 C140.600414,57.9069563 138.361525,60.1407592 133.664164,60.1407592 C127.473636,60.1407592 123.786358,55.9798718 123.786358,50.4168437 C123.786358,44.8984915 127.473636,40.780562 132.917581,40.780562 C138.317608,40.780562 141.522664,44.4156465 141.522664,49.9348577 C141.522664,50.4606606 141.478747,51.3808155 141.478747,51.3808155 L128.878969,51.3808155 C129.186386,54.5339141 131.073942,55.9798718 134.015497,55.9798718 C136.913136,55.9798718 138.756775,54.4471394 138.756775,54.4471394 L140.600414,57.9069563 Z" id="Fill-14" fill="#6D5560"></path>
                            <g id="Group-18" transform="translate(143.805556, 40.380282)">
                                <mask id="mask-2" fill="white">
                                    <use xlink:href="#path-1"></use>
                                </mask>
                                <g id="Clip-17"></g>
                                <path d="M10.5797833,5.26258169 L9.61361667,5.26258169 C7.15514444,5.26258169 5.39933889,6.97058169 5.39933889,9.73018732 L5.39933889,19.2350183 L0.131061111,19.2350183 L0.131061111,0.838792958 L3.42308889,0.838792958 L4.17053333,3.55458169 L4.43317222,3.55458169 C5.39933889,1.75808873 7.15514444,0.838792958 9.5697,0.838792958 L10.5797833,0.838792958 L10.5797833,5.26258169 Z" id="Fill-16" fill="#6D5560" mask="url(#mask-2)"></path>
                            </g>
                            <polygon id="Fill-19" fill="#FFD600" points="42.1369222 9.16658169 42.1369222 0.758032394 0.000172222222 0.758032394 0.000172222222 59.6161592 42.1369222 59.6161592 42.1369222 51.2076099 8.42786667 51.2076099 8.42786667 9.16658169"></polygon>
                            <polygon id="Fill-21" fill="#FFD600" points="33.7170639 30.2867577 16.8763139 20.4777859 16.8763139 40.0974479"></polygon>
                        </g>
                    </g>
                </g>
            </g>
        </g>
    </g>
</svg>