<?xml version="1.0" encoding="utf-8"?>
<!-- Generator: Adobe Illustrator 28.0.0, SVG Export Plug-In . SVG Version: 6.00 Build 0)  -->
<svg version="1.1" id="Layer_1" xmlns="http://www.w3.org/2000/svg" xmlns:xlink="http://www.w3.org/1999/xlink" x="0px" y="0px"
	 viewBox="0 0 300.3 316.1" style="enable-background:new 0 0 300.3 316.1;" xml:space="preserve">
<style type="text/css">
	.st0{fill:none;stroke:#1D1E1C;stroke-miterlimit:10;}
	.st1{fill:#008D36;}
	.st2{fill:#104571;}
	.st3{fill:none;stroke:#104571;stroke-width:3;stroke-miterlimit:10;}
</style>
<path class="st0" d="M80.6,97"/>
<path class="st1" d="M130.7,155.6L130.7,155.6L130.7,155.6C130.7,155.6,130.7,155.6,130.7,155.6z"/>
<path class="st2" d="M33.7,120.8L113,33c0,0,10.4-11.6,23.8-12c13.4-0.3,20.2,0,20.2,0l-80.4,90.2c0,0-7.6,8.3-22.7,9.5
	S33.7,120.8,33.7,120.8z"/>
<polygon class="st2" points="142.7,44 160.1,25.1 252.1,125.3 217.2,125.9 "/>
<polygon class="st2" points="141.2,207.9 123.8,226.8 31.8,126.6 66.7,125.9 "/>
<path class="st2" d="M127.2,230.9l79.3-87.8c0,0,10.4-11.6,23.8-12c13.4-0.3,20.2,0,20.2,0L170,221.3c0,0-7.6,8.3-22.7,9.5
	C132.2,232.1,127.2,230.9,127.2,230.9z"/>
<path class="st3" d="M214.9,130.8l-42.2,0.5c-2.8,0.5-4.7,2.2-5.8,5.2L155,180.2c-2.6,6.2-7.4,6.5-9.1,0l-13.1-94.6
	c-1.3-3-4.5-3.3-6.3,0l-9.2,30.3c-0.7,3.5-3.4,6-9.1,6.4H67.4"/>
</svg>
