<?xml version="1.0" encoding="UTF-8"?>
<svg width="239px" height="46px" viewBox="0 0 239 46" version="1.1" xmlns="http://www.w3.org/2000/svg" xmlns:xlink="http://www.w3.org/1999/xlink">
    <title>Logo No Strapline</title>
    <g id="Symbols" stroke="none" stroke-width="1" fill="none" fill-rule="evenodd">
        <g id="Top-Nav---For-Advisors" transform="translate(-30.000000, -64.000000)">
            <g id="Group" transform="translate(30.000000, 64.000000)">
                <path d="M55.8009351,44.9548052 C52.9427532,44.9548052 50.2414545,43.9719481 47.990026,42.1101299 C45.6887273,39.9064935 44.5780779,37.0971429 44.5780779,33.5064935 L44.5780779,11.1366234 L49.9505455,11.1366234 L49.9505455,33.3735065 C49.9505455,39.6581818 54.8232727,39.9761039 55.8009351,39.9761039 C56.7785974,39.9761039 61.6513247,39.6581818 61.6513247,33.3735065 L61.6513247,11.1366234 L67.0237922,11.1366234 L67.0237922,33.5064935 C67.0237922,37.0971429 65.9131429,39.9064935 63.6284675,42.0945455 C61.3604156,43.9719481 58.6580779,44.9548052 55.8009351,44.9548052" id="Fill-1" fill="#1D1D1B"></path>
                <path d="M134.974026,39.3596883 C137.72,39.3596883 146.676883,38.5274805 146.676883,27.8251429 C146.676883,23.7763117 144.248831,16.1160519 135.062338,16.1160519 L129.607792,16.1160519 L129.607792,39.3596883 L134.974026,39.3596883 Z M124.234286,44.3383896 L124.234286,11.1363117 L135.104935,11.1363117 C141.14026,11.1363117 145.695065,13.1944935 148.645714,17.2526753 C150.777662,20.2313766 152.05039,24.1835844 152.05039,27.8251429 C152.05039,32.3030649 150.328831,37.1176104 147.864416,39.5383896 C144.552208,42.8131948 140.443117,44.3383896 134.93039,44.3383896 L124.234286,44.3383896 Z" id="Fill-3" fill="#1D1D1B"></path>
                <polygon id="Fill-5" fill="#1D1D1B" points="154.351896 44.3378701 159.724364 44.3378701 159.724364 11.1368312 154.351896 11.1368312"></polygon>
                <polygon id="Fill-7" fill="#1D1D1B" points="215.415377 44.3383896 199.701091 19.7659221 199.701091 44.3383896 194.327584 44.3383896 194.327584 11.1373506 200.000312 11.1373506 215.450701 35.3118961 215.450701 11.1373506 220.823169 11.1373506 220.823169 44.3383896"></polygon>
                <path d="M85.392,29.7579221 L81.6403117,18.4571429 L77.8491429,29.7579221 L85.392,29.7579221 Z M90.8444675,44.3387013 L87.2704416,34.8290909 L75.924987,34.8290909 L72.350961,44.3387013 L66.670961,44.3387013 L79.2725195,11.1376623 L83.9665455,11.1376623 L96.5681039,44.3387013 L90.8444675,44.3387013 Z" id="Fill-8" fill="#1D1D1B"></path>
                <path d="M180.992623,29.7579221 L177.240935,18.4571429 L173.449766,29.7579221 L180.992623,29.7579221 Z M186.445091,44.3387013 L182.871065,34.8290909 L171.526649,34.8290909 L167.952623,44.3387013 L162.271584,44.3387013 L174.873143,11.1376623 L179.568208,11.1376623 L192.169766,44.3387013 L186.445091,44.3387013 Z" id="Fill-9" fill="#1D1D1B"></path>
                <path d="M104.160312,29.7575065 L104.160312,16.5315325 L108.945766,16.5315325 C115.998234,16.5315325 116.20187,22.5149091 116.20187,23.1975065 C116.20187,24.2915325 115.852779,29.7575065 108.945766,29.7575065 L104.160312,29.7575065 Z M121.723948,23.2307532 C121.723948,22.0214026 121.366545,11.6484156 109.437195,11.1611429 C109.187844,11.1476364 108.936416,11.1414026 108.68187,11.1393247 C108.640312,11.1393247 108.60187,11.1362078 108.558234,11.1362078 L107.665766,11.1362078 L107.665766,11.1382857 L98.7888831,11.1382857 L98.7888831,44.3393247 L104.160312,44.3393247 L104.160312,29.7575065 L115.450701,44.3393247 L121.879792,44.3393247 L113.464208,34.1762078 C121.479792,32.0982857 121.723948,24.9024416 121.723948,23.2307532 L121.723948,23.2307532 Z" id="Fill-10" fill="#1D1D1B"></path>
                <polygon id="Fill-11" fill="#1D1D1B" points="224.515429 40.2145455 224.515429 44.2903896 227.07439 45.8644156 227.07439 42.9168831 238.818805 42.9168831 238.818805 40.2145455"></polygon>
                <polygon id="Fill-12" fill="#1D1D1B" points="224.515429 11.1327792 224.515429 15.2086234 227.07439 16.7836883 227.07439 13.8351169 238.818805 13.8351169 238.818805 11.1327792"></polygon>
                <path d="M232.313662,33.1985455 C232.313662,33.851013 232.512104,34.4047792 232.911065,34.8504935 C233.308987,35.2982857 233.784831,35.5227013 234.336519,35.5227013 C234.913143,35.5227013 235.401455,35.3128312 235.799377,34.889974 C236.198338,34.4702338 236.398857,33.9143896 236.398857,33.2265974 C236.398857,32.5346494 236.211844,31.9819221 235.839896,31.5694545 C235.466909,31.1590649 234.984831,30.9502338 234.39574,30.9502338 C233.80561,30.9502338 233.308987,31.1663377 232.911065,31.5933506 C232.512104,32.0214026 232.313662,32.5543896 232.313662,33.1985455 M226.577558,33.3055584 C226.577558,33.7543896 226.725091,34.1211429 227.020156,34.4078961 C227.314182,34.6977662 227.690286,34.8401039 228.148468,34.8401039 C228.608727,34.8401039 228.993143,34.6894545 229.302753,34.384 C229.611325,34.0806234 229.768208,33.7045195 229.768208,33.2567273 C229.768208,32.7964675 229.615481,32.4193247 229.312104,32.1221818 C229.006649,31.8271169 228.611844,31.6806234 228.128727,31.6806234 C227.670545,31.6806234 227.297558,31.8291948 227.010805,32.1284156 C226.720935,32.4276364 226.577558,32.8182857 226.577558,33.3055584 M230.861195,30.2904935 C231.274701,29.6401039 231.808727,29.1403636 232.461195,28.7871169 C233.113662,28.4328312 233.817039,28.2562078 234.576519,28.2562078 C235.399377,28.2562078 236.161974,28.4619221 236.862234,28.8743896 C237.564571,29.2868571 238.090286,29.8406234 238.442494,30.5325714 C238.79574,31.2276364 238.973403,32.1107532 238.973403,33.1891948 C238.973403,34.3424416 238.803013,35.2588052 238.462234,35.9403636 C238.123532,36.6208831 237.60613,37.1663377 236.91626,37.5746494 C236.22639,37.982961 235.447169,38.1886753 234.576519,38.1886753 C233.823273,38.1886753 233.138597,38.0245195 232.518338,37.6972468 C231.900156,37.3678961 231.34639,36.8785455 230.861195,36.2219221 C230.426909,36.651013 229.964571,36.9741299 229.475221,37.1923117 C228.986909,37.4084156 228.469506,37.5175065 227.92613,37.5175065 C227.181195,37.5175065 226.504831,37.3388052 225.889766,36.9762078 C225.278857,36.6167273 224.803013,36.1128312 224.462234,35.4645195 C224.123532,34.8151688 223.953143,34.0671169 223.953143,33.2162078 C223.953143,32.3819221 224.12561,31.6463377 224.468468,31.0104935 C224.811325,30.3736104 225.299636,29.8738701 225.929247,29.505039 C226.561974,29.1403636 227.240416,28.9575065 227.963532,28.9575065 C228.477818,28.9575065 228.951584,29.0530909 229.390026,29.2432208 C229.824312,29.4354286 230.31574,29.7845195 230.861195,30.2904935" id="Fill-13" fill="#1D1D1B"></path>
                <path d="M228.920831,24.5692468 L228.920831,27.2237922 C227.379013,27.1521039 226.165506,26.668987 225.278234,25.7702857 C224.397195,24.8726234 223.954597,23.7204156 223.954597,22.3126234 C223.954597,21.441974 224.137455,20.6772987 224.501091,20.0113247 C224.868883,19.3463896 225.397714,18.8154805 226.085506,18.4165195 C226.776416,18.0185974 227.478753,17.8180779 228.191481,17.8180779 C229.041351,17.8180779 229.953558,18.0601558 230.935377,18.5432727 C231.910961,19.0274286 233.068364,19.9115844 234.404468,21.1967792 L236.095896,22.8009351 L236.095896,17.7027532 L238.810701,17.7027532 L238.810701,27.6144416 L237.309403,27.6144416 L232.800312,23.1874286 C231.717714,22.1183377 230.848104,21.4045714 230.190442,21.0513247 C229.53174,20.6991169 228.937455,20.5224935 228.405506,20.5224935 C227.856935,20.5224935 227.399792,20.7063896 227.039273,21.0721039 C226.680831,21.4388571 226.500052,21.9105455 226.500052,22.4871688 C226.500052,23.070026 226.718234,23.5562597 227.152519,23.9469091 C227.584727,24.3375584 228.174857,24.5432727 228.920831,24.5692468" id="Fill-14" fill="#1D1D1B"></path>
                <path d="M40.4356364,9.31251948 L34.7369351,13.1982338 L34.7369351,13.2013506 C32.2932987,8.8158961 27.9358961,5.89433766 22.9634286,5.89433766 C20.3369351,5.89433766 17.8829091,6.71096104 15.7894026,8.12706494 L15.8029091,8.12083117 C16.7213506,7.32394805 17.7125195,6.62057143 18.764987,6.01901299 C22.9343377,3.6294026 28.1603117,3.08498701 33.1629091,4.44498701 C34.5166753,4.81277922 38.6288831,6.42109091 40.3940779,9.2481039 L40.4356364,9.31251948 Z" id="Fill-15" fill="#1D1D1B"></path>
                <path d="M6.1838961,22.1641558 C6.1838961,10.6535065 15.5106494,1.3225974 27.014026,1.3225974 C28.1755844,1.3225974 29.3153247,1.42233766 30.425974,1.60519481 C27.8690909,0.573506494 25.0774026,-3.32201799e-14 22.1516883,-3.32201799e-14 C9.91792208,-3.32201799e-14 -7.7513753e-14,9.92311688 -7.7513753e-14,22.1641558 C-7.7513753e-14,34.4051948 9.91792208,44.3283117 22.1516883,44.3283117 C25.0774026,44.3283117 27.8690909,43.7548052 30.425974,42.7241558 C29.3153247,42.907013 28.1755844,43.0057143 27.014026,43.0057143 C15.5106494,43.0057143 6.1838961,33.6748052 6.1838961,22.1641558" id="Fill-16" fill="#B1956A"></path>
                <path d="M12.9300779,32.438026 C13.5711169,33.4551688 14.3918961,34.4255584 15.249039,35.2806234 C18.6474805,38.6801039 23.5472208,40.5772468 28.7305974,40.5772468 C29.966961,40.5772468 33.6905974,40.2094545 36.1924156,38.5720519 L36.1924156,44.3278961 L41.4692987,44.3278961 L41.4692987,29.7117922 L26.2028052,29.7117922 L26.1955325,34.782961 L33.3622857,34.782961 L33.3570909,34.7881558 C30.8573506,36.6645195 27.7518961,37.7762078 24.3856623,37.7762078 C19.7872208,37.7762078 15.673974,35.7014026 12.9300779,32.436987 L12.9300779,32.438026 Z" id="Fill-17" fill="#1D1D1B"></path>
            </g>
        </g>
    </g>
</svg>