<?xml version="1.0" encoding="utf-8"?>
<!-- Generator: Adobe Illustrator 16.0.0, SVG Export Plug-In . SVG Version: 6.00 Build 0)  -->
<!DOCTYPE svg PUBLIC "-//W3C//DTD SVG 1.1//EN" "http://www.w3.org/Graphics/SVG/1.1/DTD/svg11.dtd">
<svg version="1.1" id="Layer_1" xmlns="http://www.w3.org/2000/svg" xmlns:xlink="http://www.w3.org/1999/xlink" x="0px" y="0px"
	 width="110px" height="80px" viewBox="0 0 110 80" enable-background="new 0 0 110 80" xml:space="preserve">
<g>
	<path fill="#00AA55" d="M71.142,4.151c-0.079,0.045-0.116,0.141-0.089,0.227c0.028,0.086,0.113,0.143,0.205,0.131
		c0.021-0.002,2.045-0.21,5.375,0.405C89.678,7.34,96.904,16.104,96.977,16.191c0.047,0.059,0.124,0.085,0.198,0.065
		c0.073-0.019,0.129-0.08,0.142-0.154c0.003-0.027,0.509-2.83,3.113-5.431c2.578-2.578,5.184-3.369,5.208-3.377
		c0.073-0.021,0.125-0.08,0.137-0.153c0.012-0.072-0.017-0.146-0.077-0.19c-0.088-0.062-8.859-6.268-18.791-6.361
		C77.62,0.5,71.205,4.114,71.142,4.151"/>
	<path fill="#FFCC00" d="M70.648,4.714C70.584,4.723,70.53,4.76,70.5,4.817c-0.029,0.057-0.029,0.125,0.002,0.181l5.225,9.584
		c0.894,1.643,6.665,11.298,6.723,11.396c0.038,0.063,0.108,0.101,0.184,0.093c0.071-0.005,0.135-0.054,0.163-0.122
		c0.002-0.006,0.236-0.598,1.261-1.813c5.151-6.104,12-5.786,12.069-5.783c0.072,0.004,0.145-0.033,0.18-0.097
		c0.036-0.064,0.031-0.146-0.012-0.206c-0.038-0.057-4.013-5.707-10.745-9.323C76.861,4.045,70.711,4.706,70.648,4.714"/>
	<path fill="#0099CC" d="M69.93,5.16c-0.025,0.029-0.611,0.745-1.111,1.648c-7.145,13.002-2.503,25.783-2.456,25.911
		c0.025,0.071,0.091,0.12,0.166,0.124c0.076,0.006,0.148-0.035,0.186-0.1c0.002-0.007,0.381-0.693,1.521-1.7
		c5.317-4.706,12.48-4.012,12.551-4.004c0.069,0.008,0.139-0.024,0.179-0.082c0.04-0.059,0.045-0.134,0.012-0.199l-5.311-10.353
		c-0.933-1.82-5.37-11.113-5.415-11.207c-0.027-0.059-0.084-0.1-0.149-0.108S69.972,5.11,69.93,5.16"/>
	<path fill="#EE2222" d="M69.262,5.054c-0.073,0.039-7.439,3.948-12.559,12.702c-5.47,9.357-4.306,17.159-4.293,17.236
		c0.012,0.071,0.059,0.128,0.126,0.151c0.065,0.024,0.139,0.009,0.193-0.038c0.027-0.024,2.894-2.523,7.847-2.509
		c2.867,0.005,3.902,0.587,3.914,0.593c0.071,0.041,0.157,0.034,0.221-0.018c0.044-0.038,0.069-0.092,0.069-0.149
		c0-0.021-0.003-0.041-0.011-0.062c-0.023-0.066-1.223-3.648-1.223-8.899c0-4.559,0.904-10.374,4.267-16.237
		c0.771-1.329,1.681-2.467,1.689-2.479c0.028-0.035,0.042-0.078,0.042-0.119c0-0.044-0.014-0.088-0.045-0.124
		C69.442,5.032,69.344,5.012,69.262,5.054"/>
	<path d="M87.73,57.385c-1.703-0.51-4.1-1.892-6.513-3.68c0.464-0.758,0.882-1.579,1.229-2.427c0.761-1.865,1.113-2.812,2.843-2.987
		v-0.802c-0.94,0.045-1.916,0.06-2.903,0.06c-0.94,0-1.889-0.015-2.842-0.06v0.802c0.646,0.151,1.327,0.208,1.968,0.4
		c0,0.743-0.418,2.052-0.781,2.935c-0.192,0.426-0.405,0.826-0.635,1.208c-2.212-1.774-4.326-3.858-5.77-5.905
		c2.08-0.979,4.51-2.165,4.51-4.672c0-2.397-1.73-3.641-4.152-3.641c-2.651,0-4.87,1.941-4.87,4.443
		c0,1.258,0.367,2.547,0.991,3.814c-2.396,1.209-4.013,2.683-4.013,5.441c0,4.016,3.244,5.977,6.856,5.977
		c2.611,0,4.589-1.04,6.117-2.664c2.725,1.584,5.551,2.614,7.822,2.708L87.73,57.385z M74.347,40.088
		c1.428,0,1.913,1.135,1.913,2.41c0,1.676-1.378,2.558-2.742,3.174c-0.689-1.213-1.091-2.379-1.091-3.442
		C72.427,41.159,73.211,40.088,74.347,40.088 M78.116,55.085c-0.926,0.729-2.297,1.096-3.41,1.096c-2.427,0-4.519-1.857-4.519-4.672
		c0-1.427,0.557-2.347,1.512-3.103c1.614,2.398,4.075,4.66,6.75,6.41C78.344,54.914,78.23,54.999,78.116,55.085"/>
	<path d="M77.686,70.876c-0.204-0.77-0.58-1.655-1.511-1.655c-0.703,0-1.536,0.6-2.073,1.056v6.522c0,2.115,0.915,1.821,2.61,2.002
		v0.831c-1.49,0-3.01-0.062-4.489-0.062c-1.115,0-2.218,0-3.339,0.062v-0.831l1.78-0.288v-7.887c0-0.928-0.078-1.697-1.265-1.697
		c-0.23,0-0.448,0-0.676,0.023v-0.809c0.865-0.207,1.735-0.435,2.602-0.657c0.586-0.176,1.367-0.459,1.932-0.459
		c0.864,0,0.845,1.116,0.845,1.739v0.292c0.828-0.915,2.13-2.09,3.459-2.09c1.201,0,2.151,0.663,2.151,1.946
		C79.712,69.965,78.722,70.858,77.686,70.876"/>
	<path d="M52.816,79.569c-1.173,0-2.353,0-3.518,0.062v-0.831l1.721-0.288v-6.208c0-1.387-0.035-3.146-1.902-3.146
		c-0.936,0-2.341,0.478-3.147,0.947v7.123c0,1.331,0.476,1.451,1.699,1.572v0.831c-1.199,0-2.403-0.062-3.579-0.062
		c-1.125,0-2.238,0-3.357,0.062v-0.831l1.781-0.288v-7.74c0-0.989-0.017-1.845-1.247-1.845c-0.229,0-0.453,0-0.678,0.023v-0.808
		c0.867-0.207,1.734-0.435,2.605-0.657c0.787-0.212,1.455-0.459,1.922-0.459c1.003,0,0.852,1.303,0.852,1.965
		c1.364-0.827,3.581-1.965,5.187-1.965c1.046,0,1.826,0.223,2.516,1.034c0.832,0.951,0.779,2.524,0.779,3.729v5.377
		c0,1.716,0.9,1.429,2.201,1.634v0.831C55.39,79.632,54.1,79.569,52.816,79.569"/>
	<path d="M16.115,57.778H0.365v-0.83l2.916-0.515V42.046c0-1.716-0.512-2.15-2.694-2.21v-0.829h9.317v0.829l-2.689,0.449v14.43
		c0,1.595,0.37,1.777,2.689,1.777c3.665,0,4.906-0.329,5.78-4.021h0.914L16.115,57.778z"/>
	<path d="M27.634,71.566c-1.282,0-1.796,0.348-1.796,1.692v5.337C23.908,79.399,21.571,80,18.74,80
		c-5.695,0-9.478-3.968-9.478-9.515c0-5.444,4.319-9.874,9.93-9.874c2.732,0,4.925,0.662,6.538,1.237l-0.037,4.747h-0.811
		c-0.268-1.451-0.765-2.676-1.692-3.52c-0.891-0.788-2.071-1.231-3.499-1.231c-4.836,0-5.985,5.592-5.985,8.804
		c0,3.294,1.177,8.132,5.444,8.132c2.322,0,2.958-0.727,2.958-3.151v-3.715l-2.298-0.348v-0.918h8.197v0.918H27.634z"/>
	<path d="M89.014,79.794c-1.305,0-2.189-0.253-2.668-1.586c-0.887,1.333-2.618,1.713-3.9,1.713c-2.318,0-4.47-0.992-4.47-3.554
		c0-4.102,5.319-4.143,8.241-4.143v-1.578c0-1.532-0.72-2.129-2.34-2.129c-1.057,0-2.211,0.331-3.192,0.682v-1.53
		c1.364-0.395,2.712-0.66,4.376-0.66c1.179,0,2.813,0.241,3.7,1.097c0.95,0.907,0.917,2.048,0.917,3.291v5.632
		c0,0.988,0.296,1.772,1.285,1.772c0.867,0,1.779-0.082,2.621-0.159V64.438c0-1.01-0.015-1.864-1.236-1.864
		c-0.223,0-0.448,0.019-0.686,0.043V61.81c0.868-0.201,1.739-0.434,2.614-0.655c0.785-0.21,1.454-0.463,1.919-0.463
		c0.999,0,0.85,1.264,0.85,1.97v14.567c0,1.347,0.784,1.413,2.852,1.572v0.831C96.254,79.632,92.657,79.794,89.014,79.794
		 M86.217,73.423c-1.84,0-4.505,0.331-4.505,2.877c0,1.286,0.584,2.093,1.932,2.093c1.089,0,1.936-0.788,2.289-1.657
		c0.248-0.663,0.284-1.202,0.284-1.926V73.423z"/>
	<path d="M52.93,57.94c-1.332,0-2.203-0.247-2.679-1.592c-0.891,1.345-2.622,1.739-3.922,1.739c-2.303,0-4.472-0.996-4.472-3.562
		c0-4.101,5.329-4.159,8.274-4.159v-1.574c0-1.532-0.738-2.108-2.358-2.108c-1.061,0-2.234,0.324-3.189,0.662v-1.531
		c1.369-0.374,2.691-0.648,4.396-0.648c1.152,0,2.807,0.23,3.702,1.08c0.929,0.913,0.882,2.069,0.882,3.314v5.608
		c0,0.993,0.298,1.802,1.308,1.802c0.854,0,1.762-0.084,2.631-0.188v-14.2c0-1.017-0.023-1.859-1.252-1.859
		c-0.224,0-0.448,0.043-0.674,0.06v-0.831c0.869-0.205,1.738-0.433,2.587-0.662c0.785-0.204,1.442-0.457,1.949-0.457
		c0.97,0,0.837,1.286,0.837,1.966v14.571c0,1.352,0.772,1.411,2.86,1.599v0.807C60.147,57.778,56.565,57.94,52.93,57.94
		 M50.13,51.572c-1.864,0-4.528,0.324-4.528,2.875c0,1.278,0.581,2.109,1.918,2.109c1.118,0,1.974-0.807,2.301-1.674
		c0.245-0.642,0.309-1.205,0.309-1.93V51.572z"/>
	<path d="M68.286,73.151l-8.356,0.126c0.07,3.066,1.368,5.078,4.658,5.078c0.892,0,1.954-0.189,2.72-0.438v1.079
		c-1.433,0.636-2.651,0.906-4.274,0.906c-3.883,0-6.886-2.544-6.886-6.523c0-3.932,2.936-6.351,6.745-6.351
		c3.04,0,5.443,2.087,5.443,5.196C68.336,72.512,68.319,72.848,68.286,73.151 M62.764,68.232c-1.96,0-2.708,2.272-2.791,3.908
		l3.333-0.332c0.873-0.087,1.405-0.204,1.405-1.223C64.711,69.427,64.031,68.232,62.764,68.232"/>
	<path d="M43.016,46.37c-0.581-0.435-1.226-0.782-1.948-0.782c-0.557,0-0.833,0.575-1.017,1.009c0.81,0.665,1.308,1.845,1.308,2.877
		c0,2.998-2.444,4.746-5.28,4.746c-0.593,0-1.175-0.021-1.758-0.168c-0.311,0.395-0.786,0.765-1.259,0.952
		c0.038,0.605,0.722,0.638,1.176,0.638c0.991,0,1.969-0.078,2.938-0.078c2.174,0,4.614,0.665,4.614,3.269
		c0,3.666-3.703,5.193-6.845,5.193c-2.194,0-5.655-0.996-5.655-3.719c0-1.243,0.995-2.072,2.028-2.55
		c-0.852-0.514-1.116-1.49-1.116-2.442c0-0.17,0.019-0.327,0.043-0.498c0.848-0.102,2.442-0.516,2.985-1.178
		c-1.708-0.666-2.68-1.989-2.68-3.829c0-3.126,2.694-4.643,5.528-4.643c1.059,0,2.315,0.253,3.205,0.85
		c0.334-1.295,1.35-2.21,2.719-2.21c0.555,0,1.733,0.166,1.733,0.931C43.737,45.356,43.401,45.917,43.016,46.37 M35.875,46.471
		c-1.49,0-2.131,1.202-2.131,2.796c0,1.848,0.472,3.665,2.312,3.665c1.496,0,2.091-1.159,2.091-2.772
		C38.147,48.441,37.675,46.471,35.875,46.471 M36.801,58.355c-1.077,0-1.597,0.106-2.669,0.106c-0.709,0-1.361-0.064-1.882-0.228
		c-0.352,0.271-0.706,0.909-0.706,1.346c0,1.713,1.661,2.355,4.064,2.355c2.704,0,4.319-0.869,4.319-2.174
		C39.928,58.319,37.962,58.355,36.801,58.355"/>
	<path d="M29.377,51.424l-8.361,0.12c0.084,3.047,1.366,5.073,4.678,5.073c0.895,0,1.934-0.184,2.697-0.436v1.062
		c-1.425,0.658-2.658,0.912-4.248,0.912c-3.892,0-6.89-2.53-6.89-6.506c0-3.955,2.917-6.374,6.72-6.374
		c3.07,0,5.453,2.088,5.453,5.193C29.427,50.783,29.403,51.113,29.377,51.424 M23.852,46.471c-1.942,0-2.713,2.301-2.795,3.914
		l3.339-0.308c0.865-0.083,1.41-0.232,1.41-1.222C25.805,47.694,25.121,46.471,23.852,46.471"/>
	<path d="M40.464,73.151l-8.36,0.126c0.089,3.066,1.373,5.078,4.687,5.078c0.883,0,1.912-0.189,2.682-0.438v1.079
		c-1.433,0.636-2.641,0.906-4.244,0.906c-3.889,0-6.887-2.544-6.887-6.523c0-3.932,2.906-6.351,6.725-6.351
		c3.056,0,5.444,2.087,5.444,5.196C40.511,72.512,40.486,72.848,40.464,73.151 M34.945,68.232c-1.946,0-2.709,2.272-2.779,3.908
		l3.32-0.332c0.863-0.087,1.403-0.204,1.403-1.223C36.89,69.427,36.208,68.232,34.945,68.232"/>
	<path d="M101.087,46.57c0,0-0.352-0.188-1.034,0.206c-0.604,0.37-0.543,0.762-0.543,0.762s0.028,0.056,0.028,0.063
		c0.174,0.28,0.884,1.526,1.192,2.243c0.322,0.73,0.396,1.69-0.733,2.472c-0.604,0.411-1.741,0.693-2.653,0.235
		c-0.21-0.1-0.526-0.341-0.794-0.712c-0.389-0.54-5.105-9.296-5.105-9.296l-7.836-14.499c0,0-0.188-0.356-0.163-0.524
		c0.04-0.281,0.114-0.392,0.211-0.543c5.092-8.206,14.574-7.347,14.574-7.347s-0.048-1.061,0.228-2.502
		c1.571-7.958,11.177-9.697,11.177-9.697s-3.758-3.031-9.547-5.106C95.875,0.809,92.446,0.003,87.162,0
		c-6.209-0.005-11.66,1.868-12.293,2.062c-1.726,0.541-4.299,1.863-4.299,1.863L68.22,0.29c0,0-0.09-0.057-0.264,0.035
		c-0.154,0.083-0.158,0.199-0.158,0.199l1.54,4.009c0,0-0.556,0.276-1.246,0.692c-1.275,0.778-3.325,2.008-6.562,5.109
		c-1.952,1.875-4.729,5.294-6.884,9.221c-5.011,9.169-3.837,18.475-3.837,18.475s3.945-4.154,9.825-4.099
		c3.698,0.039,5.846,1.175,5.846,1.175s0.858-1.526,2.507-2.995c3.018-2.691,7.66-3.823,11.084-3.795
		c0.765,0.004,1.165,0.03,1.424,0.111c0.215,0.072,0.347,0.261,0.347,0.261l12.896,23.698c0,0,0.994,2.335,3.877,2.209
		c2.807-0.116,4.22-2.039,4.22-3.939c0.011-1.578-1.429-3.592-1.707-4.04L101.087,46.57z M86.905,0.785
		c9.983,0.093,18.678,6.324,18.678,6.324s-2.643,0.779-5.292,3.425c-2.683,2.681-3.166,5.537-3.166,5.537S89.941,7.193,76.667,4.726
		c-3.401-0.629-5.43-0.407-5.43-0.407S77.564,0.692,86.905,0.785 M60.577,32.404c-5.094-0.014-7.977,2.559-7.977,2.559
		s-1.229-7.705,4.269-17.109C62.022,9.046,69.352,5.225,69.352,5.225s-0.916,1.145-1.705,2.504
		c-7.367,12.846-3.058,25.294-3.058,25.294S63.555,32.409,60.577,32.404 M68.107,30.899c-1.188,1.048-1.565,1.753-1.565,1.753
		s-4.739-12.675,2.448-25.75c0.493-0.898,1.088-1.62,1.088-1.62s4.472,9.368,5.415,11.212c0.951,1.851,5.312,10.354,5.312,10.354
		S73.555,26.079,68.107,30.899 M75.895,14.491c-0.394-0.729-5.223-9.585-5.223-9.585s6.054-0.716,14.787,3.99
		c6.768,3.637,10.679,9.263,10.679,9.263s-6.949-0.403-12.229,5.854c-1.067,1.266-1.294,1.866-1.294,1.866
		S76.799,16.149,75.895,14.491"/>
	<path fill="none" stroke="#000000" stroke-width="0.025" d="M101.087,46.57c0,0-0.352-0.188-1.034,0.206
		c-0.604,0.37-0.543,0.762-0.543,0.762s0.028,0.056,0.028,0.063c0.174,0.28,0.884,1.526,1.192,2.243
		c0.322,0.73,0.396,1.69-0.733,2.472c-0.604,0.411-1.741,0.693-2.653,0.235c-0.21-0.1-0.526-0.341-0.794-0.712
		c-0.389-0.54-5.105-9.296-5.105-9.296l-7.836-14.499c0,0-0.188-0.356-0.163-0.524c0.04-0.281,0.114-0.392,0.211-0.543
		c5.092-8.206,14.574-7.347,14.574-7.347s-0.048-1.061,0.228-2.502c1.571-7.958,11.177-9.697,11.177-9.697s-3.758-3.031-9.547-5.106
		C95.875,0.809,92.446,0.003,87.162,0c-6.209-0.005-11.66,1.868-12.293,2.062c-1.726,0.541-4.299,1.863-4.299,1.863L68.22,0.29
		c0,0-0.09-0.057-0.264,0.035c-0.154,0.083-0.158,0.199-0.158,0.199l1.54,4.009c0,0-0.556,0.276-1.246,0.692
		c-1.275,0.778-3.325,2.008-6.562,5.109c-1.952,1.875-4.729,5.294-6.884,9.221c-5.011,9.169-3.837,18.475-3.837,18.475
		s3.945-4.154,9.825-4.099c3.698,0.039,5.846,1.175,5.846,1.175s0.858-1.526,2.507-2.995c3.018-2.691,7.66-3.823,11.084-3.795
		c0.765,0.004,1.165,0.03,1.424,0.111c0.215,0.072,0.347,0.261,0.347,0.261l12.896,23.698c0,0,0.994,2.335,3.877,2.209
		c2.807-0.116,4.22-2.039,4.22-3.939c0.011-1.578-1.429-3.592-1.707-4.04L101.087,46.57z M86.905,0.785
		c9.983,0.093,18.678,6.324,18.678,6.324s-2.643,0.779-5.292,3.425c-2.683,2.681-3.166,5.537-3.166,5.537S89.941,7.193,76.667,4.726
		c-3.401-0.629-5.43-0.407-5.43-0.407S77.564,0.692,86.905,0.785z M60.577,32.404c-5.094-0.014-7.977,2.559-7.977,2.559
		s-1.229-7.705,4.269-17.109C62.022,9.046,69.352,5.225,69.352,5.225s-0.916,1.145-1.705,2.504
		c-7.367,12.846-3.058,25.294-3.058,25.294S63.555,32.409,60.577,32.404z M68.107,30.899c-1.188,1.048-1.565,1.753-1.565,1.753
		s-4.739-12.675,2.448-25.75c0.493-0.898,1.088-1.62,1.088-1.62s4.472,9.368,5.415,11.212c0.951,1.851,5.312,10.354,5.312,10.354
		S73.555,26.079,68.107,30.899z M75.895,14.491c-0.394-0.729-5.223-9.585-5.223-9.585s6.054-0.716,14.787,3.99
		c6.768,3.637,10.679,9.263,10.679,9.263s-6.949-0.403-12.229,5.854c-1.067,1.266-1.294,1.866-1.294,1.866
		S76.799,16.149,75.895,14.491z"/>
</g>
</svg>
