<svg width="399.21pt" height="113.7pt" version="1.1" viewBox="0 0 399.21 113.7" xmlns="http://www.w3.org/2000/svg">
 <g fill="#b5ca00">
  <path d="m45.352 68.056v-67.238h-45.352v110.28h110.55v-43.039"/>
  <path d="m288.6 111.1h110.61v-43.043h-110.61z"/>
  <path d="m288.6 43.888h110.61v-43.039h-110.61z"/>
  <path d="m261.64 37.873c4.1719-4.2266 6.3477-9.7305 6.3555-15.23 4e-3 -5.5977-2.6719-12.055-6.9688-16.305-4.7461-4.6875-11.547-6.7969-17.734-6.2539-4.9297 0.4336-9.7188 2.625-13.445 6.3984l-40.723 43.039-40.996-43.152c-3.5977-3.5742-8.1602-5.6953-12.863-6.207-6.3984-0.69532-13.449 1.4609-18.316 6.3594-4.4219 4.457-7.0898 11.273-6.9219 17.148 0.15624 5.3438 2.3242 10.617 6.375 14.637l72.734 75.398"/>
 </g>
</svg>
