<svg xmlns="http://www.w3.org/2000/svg" xmlns:xlink="http://www.w3.org/1999/xlink" viewBox="0 0 440 300">
  <title>Royal London </title><defs><style>.cls-1{isolation:isolate;}.cls-2{fill:#6d3583;}.cls-3{mix-blend-mode:multiply;}.cls-4{fill:url(#linear-gradient);}</style><linearGradient id="linear-gradient" x1="129.57" y1="31.69" x2="43.8" y2="197.16" gradientUnits="userSpaceOnUse"><stop offset="0.48" stop-color="#494949" stop-opacity="0"/><stop offset="0.64" stop-color="#494949" stop-opacity="0.25"/><stop offset="0.96" stop-color="#494949" stop-opacity="0.91"/><stop offset="1" stop-color="#494949"/></linearGradient></defs><title>rl_logo_web_rgb_3_layouts</title><g class="cls-1"><g id="classic"><path d="M33.34,211.75c-3.39,1.23-5.66,4.86-5.66,9.78v52.59c0,7.78,1.49,11.35,9,11.35,11.14,0,24.95-5.42,30.78-16.84-2,8.82-4.8,20.23-4.8,20.23H11.44c3.23-1.66,5.55-4.4,5.55-9.75V221.58c0-6.39-3.58-8.86-5.58-9.83Z"/><path d="M213.08,211.72h-17.5a10.6,10.6,0,0,1,6.76,9.77v47.17L161,211.73h-15.9a19,19,0,0,1,6.83,5.42v62a10.52,10.52,0,0,1-6.74,9.75h17.5a10.6,10.6,0,0,1-6.76-9.78V222.54l50.4,69.2,0-70.26A10.53,10.53,0,0,1,213.08,211.72Z"/><path d="M399.06,125.71c-3.39,1.23-5.66,4.84-5.66,9.76v52.59c0,7.78,1.49,11.34,9,11.34,11.14,0,24.95-5.42,30.78-16.84-2,8.81-4.8,20.23-4.8,20.23H377.15c3.23-1.66,5.55-4.4,5.55-9.75V135.52c0-6.39-3.58-8.84-5.58-9.81Z"/><path d="M367.48,192.41c-3.64-9.22-11.06-29.4-26.11-69.18-9.22,24.42-23.32,61.79-26.22,69.21-2.8,7.16-6,8.69-9.23,10.39h16.2c-2.65-.85-5.12-4.62-3.46-9,.93-2.47,7-18.24,7-18.24H350s5.75,14.86,7,18.24c1.63,4.5.14,7.47-3.48,9h23.3c-2.72-1.08-6.69-3.75-9.33-10.43M327,172l10.86-28.61L348.61,172Z"/><path d="M308.13,125.71c2.91.84,5.86,5.17,2.59,10.55l-16.24,26.69s-13-23.79-15.07-27.71c-2.33-4.47,1.12-8.75,2.8-9.52H257.67c5.7,2.63,9.33,8,11.38,11.72,3.31,6.05,17.17,31.53,17.17,31.53v24.13c0,4.82-2,7.92-5.52,9.74h21.68c-3.53-1.73-5.47-5-5.47-9.79V166.1s16-26.4,19-31.32c1.49-2.41,5.3-7.19,9.26-9.07Z"/><path d="M202.66,164.37c0,24.49,10.31,36.44,26.22,36.44s26.3-12,26.3-36.44S244.77,128,228.86,128s-26.2,11.86-26.2,36.34m64.64,0c0,25.78-18.88,40.05-38.44,40.05s-38.45-14.27-38.45-40.05c0-26,18.8-40,38.45-40,19.48,0,38.44,14.15,38.44,40"/><path d="M79.24,250.26c0,24.49,10.31,36.44,26.22,36.44s26.3-12,26.3-36.44-10.41-36.34-26.32-36.34-26.2,11.86-26.2,36.34m64.64,0c0,25.78-18.88,40.05-38.45,40.05S67,276,67,250.26c0-26,18.8-40,38.45-40,19.48,0,38.45,14.14,38.45,40"/><path d="M300.3,250.26c0,24.49,10.31,36.44,26.22,36.44s26.3-12,26.3-36.44-10.41-36.34-26.32-36.34-26.2,11.86-26.2,36.34m64.64,0c0,25.78-18.88,40.05-38.45,40.05S288.06,276,288.06,250.26c0-26,18.8-40,38.44-40,19.48,0,38.45,14.14,38.45,40"/><path d="M157,125.7c35.1,0,38.49,39.32-1.3,39.15,16.37.71,16.52,7.44,31.83,27.16,3.37,4.35,7.07,9.77,12.19,10.8H182.26l-22.21-30.47c-4.86-6.67-9-6.44-12.87-6.44a10.76,10.76,0,0,0-2.19,0V193c0,4.89,1.86,8,5.5,9.78H128.81c3.65-1.8,5.54-5.07,5.54-9.75V135.45c0-4.77-2-8.23-5.5-9.75Zm-12,36.85h6.75c13.62,0,20.37-4.81,20.37-16.82,0-11-5.85-16.5-18.54-16.5a80.33,80.33,0,0,0-8.57.39Z"/><path d="M435,211.72h-17.5a10.59,10.59,0,0,1,6.76,9.77v47.17L382.9,211.73H367a19,19,0,0,1,6.83,5.42v62a10.52,10.52,0,0,1-6.74,9.75h17.5a10.6,10.6,0,0,1-6.76-9.78V222.54l50.4,69.2,0-70.26A10.53,10.53,0,0,1,435,211.72Z"/><path d="M241.59,211.71c34.65,0,40.45,26.54,40.45,39.14,0,23.91-14,38-38.44,38H215.08c3.46-1.89,5.63-5.08,5.63-9.88V221.35c0-5.12-2.82-8.53-5.59-9.64h26.47m3.14,73.74c16.6,0,25.17-10,25.17-31.74,0-27-9.26-38.6-29.29-38.6-2.17,0-5.15.11-9.26.34v53.41c0,11.79,1.95,16.59,13.38,16.59"/><path class="cls-2" d="M96.12,199c-6.09-.2-7.93-1.72-9.59-3.46-3.9-4.1-5.88-14.88-5.61-18.68-4.35.44-4.93,5.48-4.08,8.09,2,6.29,5.51,11.25,3.54,14.05-1.31,1.86-6.41.94-7.55,4.25a91.69,91.69,0,0,1,14.65,0c7.89.78,9.77-1.39,15-.52C101.2,199.83,98.81,199.11,96.12,199Zm39.56-95.4c-1.58-5.05-14.85-40.28-22.48-61.45-1.05-6.32-1.48-11.58-2.53-14.53-2.12-5.92-6.1-10.53-18.32-14.11-5.62-1.65-9.27-2.32-12.21-5.26.15,4.71,4.09,7.4,4.75,9-12.69,6-9.92,20-7.69,27.22,3.37,11,14.2,24.7,16.43,35.17C95.4,88,87.5,93.15,82.88,95.76c-3.11,1.76-5.92,3.26-8.5,4.65,14.8-2.85,24.79,6.09,16.38,20.73,2-15.06-12.14-11.1-21.14-5.36C50.09,128.25,32,165.88,32,165.88s6-29.09,19.57-48.54a100.87,100.87,0,0,0-12.2,16C30.65,147.17,26.76,172.4,5,176.75c3.67,3.14,10.55,4.14,15.92,3.94a26.92,26.92,0,0,0,12.49-4C45,169.42,66.12,155,80.77,138.18c-9.33,16-34.22,33.41-45.84,40.94,18-3.09,36.78-9,39.1-2.24,1.89-4.11,13.9-7.9,16.37-22.07,1.74,3.91-.68,8.61.68,7C101.63,149,127.94,110.1,113.2,85.11c6.88,7.52,14.85,15.82,18.26,19,2,1.9,2.06,4.1,2.16,5.94C135.15,109.1,136.93,107.64,135.67,103.62ZM103.82,35.25a2,2,0,0,1,2.54,1.12,3.6,3.6,0,0,1-.65,3.35,3.78,3.78,0,0,1-3-1.94A2,2,0,0,1,103.82,35.25ZM94,48.07C90.09,47,82.58,43.44,86.84,31.7c-.84,5.77,1.31,11.73,8,14,4.68-3.34,8.19,2,8.63,2.69,3.95,6,17.12,35.55,23.21,43.78-3.16-8.06-18.26-42.37-19.61-45.54s2.13-3.83,3-2.11c1.73,3.63,20.5,49.41,23,57.31C127.54,96.43,93.42,60.34,94,48.07Z"/><g class="cls-3"><path class="cls-4" d="M96.12,199c-6.09-.2-7.93-1.72-9.59-3.46-3.9-4.1-5.88-14.88-5.61-18.68-4.35.44-4.93,5.48-4.08,8.09,2,6.29,5.51,11.25,3.54,14.05-1.31,1.86-6.41.94-7.55,4.25a91.69,91.69,0,0,1,14.65,0c7.89.78,9.77-1.39,15-.52C101.2,199.83,98.81,199.11,96.12,199Zm39.56-95.4c-1.58-5.05-14.85-40.28-22.48-61.45-1.05-6.32-1.48-11.58-2.53-14.53-2.12-5.92-6.1-10.53-18.32-14.11-5.62-1.65-9.27-2.32-12.21-5.26.15,4.71,4.09,7.4,4.75,9-12.69,6-9.92,20-7.69,27.22,3.37,11,14.2,24.7,16.43,35.17C95.4,88,87.5,93.15,82.88,95.76c-3.11,1.76-5.92,3.26-8.5,4.65,14.8-2.85,24.79,6.09,16.38,20.73,2-15.06-12.14-11.1-21.14-5.36C50.09,128.25,32,165.88,32,165.88s6-29.09,19.57-48.54a100.87,100.87,0,0,0-12.2,16C30.65,147.17,26.76,172.4,5,176.75c3.67,3.14,10.55,4.14,15.92,3.94a26.92,26.92,0,0,0,12.49-4C45,169.42,66.12,155,80.77,138.18c-9.33,16-34.22,33.41-45.84,40.94,18-3.09,36.78-9,39.1-2.24,1.89-4.11,13.9-7.9,16.37-22.07,1.74,3.91-.68,8.61.68,7C101.63,149,127.94,110.1,113.2,85.11c6.88,7.52,14.85,15.82,18.26,19,2,1.9,2.06,4.1,2.16,5.94C135.15,109.1,136.93,107.64,135.67,103.62ZM103.82,35.25a2,2,0,0,1,2.54,1.12,3.6,3.6,0,0,1-.65,3.35,3.78,3.78,0,0,1-3-1.94A2,2,0,0,1,103.82,35.25ZM94,48.07C90.09,47,82.58,43.44,86.84,31.7c-.84,5.77,1.31,11.73,8,14,4.68-3.34,8.19,2,8.63,2.69,3.95,6,17.12,35.55,23.21,43.78-3.16-8.06-18.26-42.37-19.61-45.54s2.13-3.83,3-2.11c1.73,3.63,20.5,49.41,23,57.31C127.54,96.43,93.42,60.34,94,48.07Z"/></g></g></g></svg>