<?xml version="1.0" encoding="utf-8"?>
<!-- Generator: Adobe Illustrator 19.2.1, SVG Export Plug-In . SVG Version: 6.00 Build 0)  -->
<svg version="1.1" id="layer" xmlns="http://www.w3.org/2000/svg" xmlns:xlink="http://www.w3.org/1999/xlink" x="0px" y="0px"
	 viewBox="0 0 652 652" style="enable-background:new 0 0 652 652;" xml:space="preserve">
<style type="text/css">
	.st0{fill:#006292;}
</style>
<path class="st0" d="M126.2,275.5c-5.5-3.4-11.4-6-17.6-7.7c-5.9-1.7-12.2-3.3-18.6-4.7c-6.1-1.4-12.2-2.9-18-4.4
	c-4.9-1.2-9.7-3.1-14.2-5.5c-3.5-1.8-6.5-4.4-8.8-7.6c-1.9-2.7-2.9-6.3-2.9-11c-0.1-3.7,0.9-7.4,2.9-10.6c2.2-3.2,5.1-5.9,8.4-7.9
	c3.8-2.2,7.9-3.9,12.2-4.9c10.4-2.5,21.4-2.2,31.6,1.1c5.8,1.8,11.4,4.3,16.7,7.4c0.4,0.3,1.1,0.7,1.8,1.1c0.7,0.5,1.3,0.9,2.1,1.4
	c1,0.7,1.9,1.3,3,1.8c4.9,2.7,11.1,1,13.8-3.9c0.8-1.5,1.3-3.1,1.3-4.8c0.1-2-0.5-4-1.7-5.6c-0.5-0.7-1.1-1.3-1.7-1.9
	c-3.5-3.2-7.4-6-11.6-8.1c-4.5-2.3-9.2-4.2-14-5.7c-4.8-1.5-9.7-2.7-14.7-3.5c-4.4-0.8-8.9-1.2-13.4-1.2c-6.5,0-12.9,0.9-19.2,2.7
	c-6.4,1.7-12.4,4.5-18,8.1c-5.7,3.6-10.5,8.4-14.1,14.1c-3.8,6.3-5.8,13.5-5.6,20.9c-0.1,5.5,1,11,3.2,16.1c2.1,4.6,5,8.9,8.6,12.5
	c3.6,3.5,7.7,6.5,12.1,8.8c4.4,2.2,9,4,13.7,5.3c3.6,0.9,7.9,1.9,12.7,2.8c4.5,0.9,9.2,1.9,14,3.1c4.8,1.2,9.4,2.6,14,4.2
	c4,1.3,7.7,3.2,11.2,5.5c2.8,1.9,5.2,4.3,7.1,7.1c1.6,2.6,2.4,5.7,2.3,8.8c0.1,4.3-0.9,8.5-3,12.2c-2.1,3.6-5,6.7-8.4,9.1
	c-3.7,2.6-7.9,4.5-12.3,5.7c-4.6,1.3-9.4,1.9-14.2,2c-8.9,0.1-17.7-1.7-25.8-5.4c-8.3-4-16-9-23-14.9c-1.8-1.8-4.2-2.8-6.7-2.8
	c-2.9,0-5.7,1.2-7.6,3.4c-3.8,3.9-3.7,10.1,0.1,13.9c0.1,0.1,0.3,0.3,0.4,0.4c8.3,7.9,17.8,14.2,28.3,18.8c10.7,4.6,22.2,7,33.9,7
	c6.9,0,13.7-1,20.4-2.9c6.7-1.9,13-4.8,18.7-8.7c5.8-4,10.6-9.2,14.1-15.2c3.7-6.7,5.6-14.2,5.5-21.8c0-8.3-1.8-15.3-5.4-20.9
	C136.2,283.4,131.6,278.9,126.2,275.5z"/>
<path class="st0" d="M250.3,306.3L250.3,306.3l-51.6-13.8l20.4-42.8l12.5-27.4l12.5,27.4l47.6,103c1.6,3.6,5.2,5.9,9.2,5.8h0.8
	c0.6,0,1.2-0.1,1.8-0.3l1.1-0.4c4.2-1.5,6.8-5.7,6.3-10.1c-0.1-1.5-0.1-1.5-3.3-8.7c-1.8-4-4.2-9.2-7.1-15.6
	c-2.9-6.4-6.3-13.7-10.2-22c-3.8-8.3-7.7-16.7-11.7-25.4c-3.9-8.6-8-17.3-12-25.9c-4-8.6-7.6-16.3-10.8-23.3l-14.5-31.5
	c-3.1-5.4-10-7.2-15.3-4.1c-1.8,1-3.2,2.5-4.2,4.3l-45.5,98.4c-0.2,0.4-0.4,0.8-0.6,1.3l-22.6,49c-2.5,4.8-0.7,10.8,4.1,13.3
	c2.8,1.5,6.2,1.5,9,0.1l0,0l85.1-39.5l0,0c3.1-1.5,4.5-5.2,3-8.4C253.6,308,252.1,306.8,250.3,306.3L250.3,306.3z"/>
<path class="st0" d="M462.9,344.2c-2.5,4.8-0.7,10.8,4.1,13.3c2.8,1.5,6.2,1.5,9,0.1l0,0l85.1-39.5l0,0c3.1-1.5,4.5-5.2,3-8.4
	c-0.8-1.7-2.3-2.9-4-3.4l0,0l-51.6-13.8l20.4-42.8l12.5-27.4l12.5,27.4l47.6,103c1.6,3.6,5.2,5.9,9.2,5.8h0.8c0.6,0,1.2-0.1,1.8-0.3
	l1.1-0.4c4.2-1.5,6.8-5.7,6.3-10.1c-0.1-1.5-0.1-1.5-3.3-8.7c-1.8-4-4.2-9.2-7.1-15.6c-2.9-6.4-6.3-13.7-10.2-22
	c-3.8-8.3-7.7-16.7-11.7-25.4c-3.9-8.6-8-17.3-12-25.9c-4-8.6-7.6-16.3-10.8-23.3c-3.2-7-7.9-17.2-10.1-22c-2.1-4.6-3.6-7.8-4.3-9.3
	c-3.1-5.4-10-7.2-15.3-4.1c-1.8,1-3.2,2.5-4.2,4.3l-45.5,98.4c-0.2,0.4-0.4,0.8-0.6,1.3L462.9,344.2z"/>
<path class="st0" d="M330,333.6c7.7,7.6,16.8,13.7,26.8,18c10.4,4.5,21.7,6.7,33,6.7c10.2,0,20.3-1.8,29.9-5.3
	c9.9-3.5,19-9.1,26.6-16.4c2-1.9,3.1-4.6,3-7.3l0.2-47.9c0-6.1-4.2-10.3-10.2-10.3h-51.9c-2.8-0.1-5.6,1.1-7.5,3.2
	c-3.6,3.9-3.6,9.9,0,13.8c1.9,2.1,4.7,3.3,7.5,3.2h41.8l-0.1,33.1c-5.3,4-11,7.2-17.2,9.5c-15.2,5.8-32,5.5-46.9-0.9
	c-15.4-6.6-27.8-18.8-34.4-34.2c-6.7-15.9-6.7-33.8,0-49.7c6.6-15.5,18.9-27.8,34.4-34.4c7.9-3.4,16.3-5,24.9-5
	c7.7-0.1,15.4,1.3,22.6,4.2c7.2,3.1,13.9,7.2,19.8,12.2c1.8,1.8,4.2,2.7,6.7,2.8c2.9,0,5.6-1.2,7.6-3.4c1.8-2,2.8-4.5,2.8-7.2
	c-0.1-2.8-1.3-5.5-3.4-7.3c-7.6-7.2-16.5-12.7-26.3-16.2c-9.5-3.5-19.6-5.3-29.8-5.3c-11.3-0.1-22.6,2.2-33,6.7
	c-20.2,8.5-36.3,24.6-44.8,44.8c-8.9,21.1-8.9,44.9,0,65.9C316.2,316.8,322.4,325.9,330,333.6z"/>
<polygon class="st0" points="303.1,405.5 290.7,405.5 277.6,420.1 277.6,389.7 268.1,389.7 268.1,440.5 277.6,440.5 277.6,433 
	283.1,427.4 292.1,440.5 304.6,440.5 289.8,420 "/>
<path class="st0" d="M322.3,405.2c-10.9,0-18.2,7.6-18.2,17.8s7.4,17.7,18.3,17.7c8.1,0,14.5-4.5,16.3-10.9h-10.3
	c-1.1,2.1-3,2.7-5.8,2.7c-4.9,0-7.6-2.7-8.6-5.9H339c0.2-1.4,0.3-2.9,0.2-4.3C339.2,412.2,331.9,405.2,322.3,405.2z M313.9,419.3
	c0.9-3.7,4.2-6.4,8.1-6.3c3.7,0,6.8,2.7,7.4,6.3H313.9z"/>
<path class="st0" d="M362.1,405.2c-10.9,0-18.2,7.6-18.2,17.8s7.4,17.7,18.3,17.7c8.1,0,14.5-4.5,16.3-10.9h-10.3
	c-1.1,2.1-3,2.7-5.8,2.7c-4.9,0-7.6-2.7-8.6-5.9h24.9c0.2-1.4,0.3-2.9,0.2-4.3C379,412.2,371.7,405.2,362.1,405.2z M353.7,419.3
	c0.9-3.7,4.2-6.4,8.1-6.3c3.7,0,6.8,2.7,7.4,6.3H353.7z"/>
<path class="st0" d="M403.6,405.2c-3.9,0-7.5,1-9.6,2.7v-2.3h-10.6v50.8H394v-18.3c2.1,1.7,5.8,2.7,9.6,2.7c9.4,0,17-7.9,17-17.8
	C420.6,413.1,413.1,405.2,403.6,405.2z M402,432.4c-3.2,0.1-6.1-1.4-8-3.9v-10.9c1.8-2.6,4.8-4.1,8-4c5.1,0,8.8,4.4,8.8,9.5
	C411,428,407.1,432.2,402,432.4C402,432.4,402,432.4,402,432.4z"/>
<path class="st0" d="M468.1,407.9c-2.1-1.7-5.7-2.7-9.5-2.7c-9.4,0-16.9,7.9-16.9,17.8c0,9.9,7.5,17.8,16.9,17.8
	c3.9,0,7.5-1,9.6-2.7v2.4h10.6v-50.8h-10.6V407.9z M468.1,428.4c-1.8,2.6-4.8,4.1-7.9,4c-5.2,0-8.8-4.4-8.8-9.5
	c0-5.1,3.5-9.3,8.7-9.3c3.1-0.1,6.1,1.4,7.9,3.9L468.1,428.4z"/>
<path class="st0" d="M501.6,405.2c-10.6,0-18.3,7.5-18.3,17.8s7.8,18.1,18.3,18.1s18.2-7.7,18.2-18.1
	C519.8,412.6,512.1,405.2,501.6,405.2z M501.6,432.3c-5.2,0-8.6-4.1-8.6-9.3s3.4-9,8.6-9s8.5,3.9,8.5,9S506.7,432.3,501.6,432.3z"/>
<path class="st0" d="M530,388c-3.2-0.1-5.9,2.4-6,5.6c0,0.1,0,0.1,0,0.2c-0.1,3.3,2.6,6,5.9,6.1c3.3,0.1,6-2.6,6.1-5.9
	C536,390.7,533.4,388,530,388C530.1,388,530,388,530,388z"/>
<rect x="525.2" y="405.5" class="st0" width="9.5" height="34.9"/>
<path class="st0" d="M561.2,404.8c-3.9,0-6.3,1.3-9.5,3.5v-2.8h-9.5v34.9h9.5v-22.4c1.7-2.5,4.5-4,7.5-4.2c4.6,0,7.3,2.9,7.3,8.3
	v18.3h9.5v-19.2C576,411.3,570.3,404.8,561.2,404.8z"/>
<path class="st0" d="M607.8,407.2c-2.1-1.7-5.7-2.7-9.6-2.7c-9.4,0-17,7.2-17,17.5c0.2,9.2,7.7,16.7,16.9,16.7c3.9,0,7.5-1,9.6-2.7
	v3.7c0,5.4-3.3,8-7.7,8c-4.7,0-7.4-1.9-7.9-6.2h-10c0.7,9.5,8.3,15,18.2,15c10.3,0,18-6.2,18-16.9v-34.1h-10.6V407.2z M607.8,426.2
	c-1.7,2.7-4.7,4.3-7.9,4.1c-4.7,0-8.6-3.7-8.8-8.3c0-5.4,3.5-9.1,8.8-9.1c3.2-0.1,6.2,1.4,8,4.1L607.8,426.2z"/>
</svg>
