<?xml version="1.0" encoding="UTF-8" standalone="no"?>
<svg
   xmlns:dc="http://purl.org/dc/elements/1.1/"
   xmlns:cc="http://creativecommons.org/ns#"
   xmlns:rdf="http://www.w3.org/1999/02/22-rdf-syntax-ns#"
   xmlns:svg="http://www.w3.org/2000/svg"
   xmlns="http://www.w3.org/2000/svg"
   width="54.643414mm"
   height="10.813675mm"
   viewBox="0 0 54.643414 10.813675"
   version="1.1"
   id="svg1554">
  <g
     id="layer1"
     transform="translate(-78.511625,-142.75983)">
    <g
       transform="matrix(1.0000178,0,0,1.0000178,343.07032,-126.78619)"
       id="g947">
      <g
         id="SW---UI-Kit"
         transform="matrix(0.26458,0,0,0.26458,-264.67,269.54)"
         fill="none"
         fill-rule="evenodd">
        <g
           id="Components-/-Header"
           transform="translate(-350,-454)">
          <g
             id="Desktop"
             transform="translate(160,228)">
            <g
               transform="translate(160,152)"
               id="g942">
              <g
                 id="Components-/-Header-/-Brand-Bar"
                 transform="translate(0,48)">
                <g
                   id="SW_Logo_RGB"
                   transform="translate(30,26)">
                  <path
                     id="Shape"
                     d="m 193.1,0.075761 c -11.63,6.6848 -24.015,11.632 -37.844,11.03 -9.6764,-0.4813 -18.617,-2.7007 -27.949,-4.3228 -6.1565,-1.0785 -12.313,0.41891 -17.104,4.6214 l -2.3957,2.1614 h -0.14276 c 6.5981,-7.4424 15.391,-10.326 24.724,-9.4255 l 5.1304,0.65957 12.853,2.2283 c 10.992,1.7826 23.6,1.4395 33.767,-2.9413 3.0562,-1.1742 6.0361,-2.5376 8.9224,-4.0822 z"
                     fill="#d3292e" />
                  <g
                     fill="#000000"
                     id="g938">
                    <path
                       d="m 206.42,15.183 -0.49073,2.1614 c -0.39259,-0.05794 -0.68256,-0.53924 -1.0752,-0.65957 -1.0752,-0.53924 -2.4938,-0.95815 -3.7162,-0.41891 -0.24058,0.1817 -0.32224,0.50613 -0.19629,0.77989 l 0.44612,0.41891 c 2.0031,1.337 5.7148,1.337 5.572,5.1607 -0.24537,1.5598 -1.5168,2.3397 -2.5875,2.821 -2.5429,0.65956 -5.523,0.24065 -8.0614,-0.24065 -0.14722,-0.36098 0.0491,-0.77989 0.0491,-1.1988 l 0.0982,-1.4395 c 1.4187,1.3815 3.5199,2.2283 5.2776,1.1409 0.26807,-0.29026 0.36151,-0.70098 0.24536,-1.0785 l -0.49073,-0.4813 c -1.8559,-1.0205 -4.546,-1.1988 -5.3267,-3.9618 -0.1963,-1.0205 0.19629,-1.6801 0.68256,-2.3397 2.0522,-1.6222 4.6441,-1.2612 7.0844,-1.0785 z"
                       id="path908" />
                    <path
                       d="m 195.13,15.005 -3.569,10.504 h -5.4204 l 0.19629,-0.72196 c -0.49073,-1.5018 -0.82978,-3.2399 -1.4187,-4.6838 -0.78071,1.7425 -1.3696,3.6009 -2.0031,5.4013 l -5.3534,0.05793 c 0.17991,-0.35309 0.21511,-0.76229 0.0981,-1.1409 l -2.4447,-7.9237 -0.89224,-1.4395 c 1.9049,0 3.7117,-0.12033 5.523,0 l 2.1994,7.5761 c 0.82978,-1.3815 1.1242,-3.2399 1.7577,-4.7417 0.22201,-0.65216 0.16886,-1.3665 -0.14721,-1.9787 l -0.58442,-0.8913 h 5.3267 c 0.82978,2.5224 1.3384,5.1607 2.2975,7.5761 l 0.19629,-0.29859 1.6105,-4.8041 c 0.17243,-0.87352 -0.0605,-1.778 -0.63349,-2.46 1.0844,-0.09954 2.1751,-0.10998 3.2611,-0.0312 z"
                       id="path910" />
                    <path
                       d="m 88.805,15.665 c -0.19629,0.77989 -0.39259,1.5598 -0.53534,2.4021 -1.3874,-1.0295 -2.7347,-1.7425 -4.3988,-1.5018 -0.27422,0.02784 -0.50476,0.21771 -0.58442,0.4813 -0.19629,0.4813 0.29444,0.77989 0.53981,0.96261 1.8559,1.1988 4.546,1.1409 5.523,4.0109 0.29444,1.1409 -0.14722,1.9787 -0.78071,2.821 -2.7838,2.3397 -6.7944,1.3815 -10.015,0.83783 0,-0.95815 0.09815,-1.7425 0.14722,-2.7007 1.4187,1.3815 3.4708,2.099 5.2285,1.337 0.34351,-0.24065 0.57996,-0.81554 0.34351,-1.1409 -1.1733,-1.1988 -2.7838,-1.337 -4.1043,-2.1614 -0.92805,-0.53303 -1.5584,-1.4636 -1.7086,-2.5224 -0.06471,-1.0933 0.48127,-2.1327 1.4187,-2.7007 2.7169,-1.2033 6.0449,-0.5437 8.9269,-0.12478 z"
                       id="path912" />
                    <path
                       d="m 10.671,15.727 c -0.14055,0.47807 -0.2567,0.96298 -0.34797,1.4528 l -0.13384,0.8913 C 8.85079,16.9302 7.06639,16.2885 5.40229,16.8099 5.12855,17.01976 5.0457,17.39596 5.206,17.7012 c 0.5978,0.98489 4.3988,1.337 5.862,3.7836 0.26318,0.66697 0.33125,1.3949 0.19629,2.099 -1.0261,2.821 -3.6671,2.6427 -5.862,2.763 -1.6555,-0.03413 -3.3017,-0.2554 -4.9073,-0.65956 0.14542,-0.83267 0.21115,-1.6773 0.19629,-2.5224 1.3384,1.0785 2.8819,1.9208 4.6441,1.4395 0.46019,-0.10427 0.8314,-0.44292 0.977,-0.8913 0.014815,-0.40859 -0.21486,-0.78689 -0.58442,-0.96261 -1.9049,-1.1988 -5.523,-1.2612 -5.2776,-4.9824 0.53981,-2.2817 2.6767,-2.4021 4.3497,-2.5803 1.954,-0.12033 3.9616,0.35652 5.8709,0.53924 z"
                       id="path914" />
                    <path
                       d="m 24.059,15.785 -0.49073,2.2817 c -1.1733,-1.1409 -2.6767,-1.7425 -4.2025,-1.2612 -0.82978,0.36098 -1.4187,1.4395 -1.4677,2.5224 -0.04907,1.6222 -0.29444,3.5429 0.89224,4.6214 1.1242,1.1988 3.1764,0.95815 4.3988,0.12033 l 0.977,-0.84228 c 0.04907,0.72196 0.04907,1.5018 0.04907,2.1614 -3.1764,1.2612 -7.8651,1.7826 -10.457,-1.5018 -0.91033,-1.4028 -1.1933,-3.1215 -0.78071,-4.7417 0.89224,-2.8834 3.4217,-3.8415 5.7193,-3.9618 1.8871,-0.17826 3.5556,0.36098 5.3624,0.60163 z"
                       id="path916" />
                    <path
                       d="m 68.573,15.246 c -0.14722,1.0205 -0.58442,1.8628 -0.68256,2.8834 -0.97218,-0.74874 -2.1473,-1.1882 -3.3727,-1.2612 l -0.14722,0.12033 0.04907,8.102 c 0.08263,0.2927 0.19786,0.57523 0.34351,0.84228 h -5.813 l 0.34351,-1.0205 c 0.04907,-2.821 0.14722,-5.1607 0.04907,-7.9237 -1.5176,-0.05932 -3.0123,0.38407 -4.2515,1.2612 0.29687,-0.94692 0.54112,-1.9095 0.73164,-2.8834 4.2961,0.05794 8.4005,0.36098 12.75,-0.12033 z"
                       id="path918" />
                    <path
                       d="m 53.151,15.486 1.4187,-0.17826 c -0.28703,0.92171 -0.49888,1.8651 -0.63349,2.821 -1.0752,-0.72196 -2.2306,-1.2612 -3.569,-1.1409 -0.09815,2.763 -0.04907,5.4637 -0.04907,7.9237 l 0.39259,1.0785 h -5.7371 c 0.73164,-1.7425 0.24537,-4.0822 0.44612,-6.1233 l -0.09815,-2.8789 c -1.4946,-0.0024 -2.9566,0.43632 -4.2025,1.2612 l 0.63349,-2.8834 c 0.73164,0 1.6105,0.12033 2.2975,0.17826 z"
                       id="path920" />
                    <path
                       d="m 128.38,25.87 h -5.4248 c 0.19615,-0.48144 0.19615,-1.0204 0,-1.5018 -0.49073,-1.2612 -0.63349,-2.6427 -1.2224,-3.8415 -0.73163,1.6801 -1.2714,3.5429 -1.9049,5.281 l -0.14722,0.12033 h -5.2285 c 0.39259,-0.8913 -0.14722,-1.7425 -0.29444,-2.5803 -1.0752,-2.5803 -1.2714,-5.7043 -2.931,-7.9237 l 5.4248,-0.05794 0.19629,0.24065 c 0.73164,2.46 1.2224,4.9824 2.0522,7.3221 l 0.24536,-0.29859 c 0.53981,-1.8628 1.4677,-3.4805 1.615,-5.5216 -0.0979,-0.64495 -0.4126,-1.2374 -0.89224,-1.6801 l 5.2776,-0.05793 0.27213,0.29413 2.0031,7.2641 0.14722,-0.05793 1.6908,-4.7997 c 0.1864,-0.96102 -0.0636,-1.9551 -0.68257,-2.714 1.0573,0 2.3957,-0.04457 3.4218,0 z"
                       id="path922" />
                    <path
                       d="m 139.09,16.627 v 7.7454 c 0.0725,0.50016 0.22302,0.98588 0.44612,1.4395 -1.8559,0.12033 -3.859,0 -5.7639,0.06239 0.24628,-0.52953 0.39729,-1.0983 0.44612,-1.6801 l -0.0982,-7.741 -0.39258,-1.1409 h 5.7505 z"
                       id="path924" />
                    <path
                       d="m 75.952,15.366 c -0.29877,0.53184 -0.4526,1.1327 -0.44612,1.7425 0,2.763 -0.19629,5.7043 0.14722,8.2847 l 0.24537,0.53924 -5.7996,0.05794 c 0.23943,-0.53199 0.39013,-1.0995 0.44612,-1.6801 v -7.683 c -0.09527,-0.41747 -0.24527,-0.82055 -0.44612,-1.1988 1.8469,-0.12478 3.9482,-0.0045 5.8531,-0.06239 z"
                       id="path926" />
                    <path
                       d="m 97.161,15.424 c -0.63349,1.0785 -0.39259,2.6739 -0.44612,4.0733 l 0.19629,0.0312 3.618,-0.02228 c 0.0491,-1.0785 0.24536,-2.6427 -0.14722,-3.6009 l -0.30337,-0.50804 h 5.8754 c -0.27271,0.50128 -0.4383,1.0537 -0.48627,1.6222 l 0.0982,7.7454 c 0.0546,0.40235 0.18803,0.79001 0.39258,1.1409 h -5.7996 c 0.78071,-1.1988 0.34351,-2.9859 0.44612,-4.5457 l -0.0491,-0.12033 h -3.7608 c 0.04907,1.5598 -0.29444,3.378 0.39259,4.6972 h -5.7996 c 0.34707,-0.69024 0.51577,-1.4562 0.49073,-2.2283 l -0.09815,-7.2017 -0.39259,-1.0785 h 5.7996 z"
                       id="path928" />
                    <path
                       d="m 173.68,19.087 c 0.35515,1.5298 0.0734,3.1381 -0.78071,4.4565 -2.4448,2.9992 -6.4018,2.763 -9.6273,2.1614 -1.7577,-0.53924 -3.8589,-1.6801 -4.3006,-4.1401 -0.1963,-1.5598 0,-3.3023 0.977,-4.5011 1.2224,-1.3815 2.8507,-1.7826 4.3229,-2.2283 0.38078,-0.04007 0.76379,-0.05496 1.1465,-0.04457 3.1273,0.04457 7.0398,0.16043 8.2622,4.2961 z m -7.9186,-2.821 c -0.89224,0.17826 -1.4187,1.2612 -1.6105,2.2283 -0.0491,1.8628 -0.39259,3.6633 0.63349,5.223 0.54467,0.72206 1.5049,0.99196 2.3466,0.65956 0.55138,-0.27483 0.97271,-0.75493 1.1733,-1.337 0.49713,-1.8305 0.48015,-3.7625 -0.0491,-5.584 -0.41648,-0.96376 -1.4816,-1.472 -2.4938,-1.1899 z"
                       id="path930" />
                    <path
                       d="m 39.892,18.365 c 0.73018,1.6854 0.63961,3.6133 -0.24537,5.223 -2.6767,3.6009 -8.5031,3.1686 -10.752,2.099 -1.3696,-0.60163 -2.8819,-1.7425 -3.3236,-3.5429 -0.33408,-1.415 -0.16041,-2.9023 0.49073,-4.2025 2.0522,-2.9413 5.4739,-3.0616 8.6503,-2.763 1.9317,0.3075 4.0062,1.0874 5.1795,3.1864 z m -8.2577,-1.3815 c -0.68865,0.60406 -1.066,1.4874 -1.0261,2.4021 -0.04461,1.7425 -0.39259,4.2025 1.3696,5.223 0.7241,0.31424 1.5605,0.22272 2.1994,-0.24065 0.47782,-0.51742 0.78871,-1.1665 0.89224,-1.8628 0.09815,-1.9208 0.29444,-3.8415 -0.73164,-5.4013 -0.72116,-0.76338 -1.9195,-0.81474 -2.7035,-0.11587 z"
                       id="path932" />
                    <path
                       d="m 155.31,16.627 c 1.2714,0.8913 1.7577,2.5803 1.7577,4.3228 -0.10996,0.92688 -0.44539,1.8128 -0.977,2.5803 -1.2714,1.6222 -3.0292,2.099 -4.836,2.2283 -2.931,0.17826 -5.862,0.05793 -8.8466,0.12033 0.53534,-0.72196 0.34351,-1.6801 0.39258,-2.5803 l -0.0491,-7.1304 -0.39259,-0.8913 c 4.3943,0.38772 9.1856,-0.9938 12.951,1.3503 z m -7.477,0.12033 v 7.3845 l 0.14722,0.12033 c 1.3384,0.05794 2.8819,0.12033 3.569,-1.5018 0.44612,-1.337 0.53534,-3.3602 -0.0982,-4.6214 -0.78517,-1.5642 -2.2529,-1.5018 -3.6225,-1.3949 z"
                       id="path934" />
                    <path
                       d="M 97.941,28.321 C 93.1051,33.3613 87.484,36.9043 81.18,37.9248 71.8115,39.3643 62.889,36.365 53.815,35.0459 43.8487,33.3034 32.754,32.7642 23.033,35.5272 c -4.8348,1.2761 -9.5179,3.0691 -13.968,5.3478 -0.14722,-0.05793 -0.10261,0 -0.10261,-0.1337 l 3.2255,-1.6801 c 10.948,-5.4637 22.476,-9.1849 35.426,-8.405 4.6792,0.26256 9.3336,0.85827 13.928,1.7826 l 12.902,2.7007 c 6.839,1.7826 14.561,0.72196 19.986,-4.1401 l 3.2255,-2.7007 h 0.29444 z"
                       id="path936" />
                  </g>
                </g>
              </g>
            </g>
          </g>
        </g>
      </g>
    </g>
  </g>
</svg>
