<?xml version="1.0" encoding="utf-8"?>
<!-- Generator: Adobe Illustrator 19.2.1, SVG Export Plug-In . SVG Version: 6.00 Build 0)  -->
<svg version="1.1" id="layer" xmlns="http://www.w3.org/2000/svg" xmlns:xlink="http://www.w3.org/1999/xlink" x="0px" y="0px"
	 viewBox="0 0 652 652" style="enable-background:new 0 0 652 652;" xml:space="preserve">
<style type="text/css">
	.st0{fill:#F15D22;}
</style>
<path class="st0" d="M147.7,318c0,4-12,52.3-12,56.3c-0.3,2,0.4,4,1.9,5.3c0,0,2.7,15.2-17.1,20c-9,0-16.4-7.3-16.4-16.3
	c0-0.4,0-0.8,0-1.3c1.6-14.6,3.9-57.6,27.1-84c9.4,2.1,16.2,10.4,16.3,20 M409,299.7c4.1,0,13.2-7,13.2-12.8c0-2.6-9.9-24-23.4-24
	c-4.7,0.7-8.4,4.2-9.3,8.8C389.5,278.2,395.2,299.7,409,299.7 M153.2,284.4c4.1,0,11.1-2.8,11.1-8.6c0-2.6-11.1-28-24-28
	c-4.7,0.7-8.4,4.2-9.3,8.8C131,263.2,132.4,284.4,153.2,284.4 M194.6,167.7c-5.4-6.2-76.2-14.2-137,177.9c-0.2,0.7-1,1.1-1.7,0.9
	c-0.4-0.1-0.8-0.5-0.9-0.9c-9.6-50.9-5.3-108.7-6.6-118c0.3-9-6.8-16.6-15.8-16.9c-2.2-0.1-4.4,0.3-6.4,1.1
	c-8.8,18.3-3.2,166.8,11.1,186c8.8,3.8,34,2.4,39.4-3.6c0,0,35.4-187.5,117.9-226.4 M573.4,304.9c-1.8,0-2.9,2.3-2.9,2.3
	c-21.3,38.6-40.7,69.3-57.2,70.5c-3.6,0-5.3-2-6.1-5.8l0,0c-2-14.8,11.9-51.5,11.1-61.8c0-3.9-2.3-3.4-4.8-5
	c-0.9,0.8-1.8,1.7-2.6,2.7c-0.5,0.3-1.1,0.3-1.6,0c-9.6-3.3-19.5-5.7-29.6-7.1c7.6-21.3,23.4-65.9,23.4-69.9
	c0-10-7.3-13.3-19.7-16.7c-14.3,27.5-25.5,56.6-33.4,86.6c-6.4,5.8-16.2,0-18.1,11.9c4.9,5.1,13.9,9.3,13.9,13.3
	c-5,24-6.4,48.6-4.2,73.1c3.6,1.3,17.9-14,18.3-18.6c4-41.3,14.5-55.6,14.5-55.6c8.4,0.3,16.8,0,25.1-1.1l0,0
	c-7.8,14.7-13.4,30.5-16.5,46.9c0,17.3,5.6,27.1,19.9,28.4c3.1,0.3,6.2,0.3,9.2,0c16.8-2.5,32.1-11.3,42.9-24.5
	c0.4-0.5,1.2-0.6,1.7-0.1c0.4,0.3,0.5,0.8,0.4,1.3c-21.1,75.4-61.9,94.3-79.1,98.4c0.6,5.2,30.2,3.8,51-13.8
	c22.9-20.3,39.8-46.5,48.8-75.7c2.2-7.8,4.4-15.7,6.1-23.8c3.1-14.6,4.8-29.5,5.1-44.5c0-2.6-13.9-11.1-16.8-11.1 M431.4,389.6h-0.8
	c-22.2,0,3.9-77.8-27.4-73.8c-5.6,1.3-11,3.4-16,6.2c-0.6,0.3-1,0.8-1.3,1.3c-11.1,18.1-24.1,34.9-38.7,50.4c-1.3,1.4-3.6,1.5-5,0.2
	c-0.5-0.4-0.8-0.9-1-1.5c-11.1-36.6,38.7-144.6,39.4-146.8c3.8-12.1-12.8-17.9-21-18.8c-18.1,25.6-48.5,106.9-45.5,171.6
	c0,0.8-0.5,1.6-1.2,1.9c-5.1,2.1-23.6,8.9-21.5-6.2c0.6-4,9.3-27.1,9.3-31.1s-11.1-17.6-19.3-17.6c-3.4,0-34.8,39.7-45.4,48.9
	c-1.5,1.3-3.7,1.1-5-0.4c-0.2-0.3-0.4-0.5-0.5-0.8c-5.7-12.6,8.1-47,47.5-60c3.6-3.1,7-6.4,10.1-10c0.4-1,0.4-2.1,0-3.1
	c0-1.8-2.9-3-3-3.1l0,0c-22.2-10.1-70.5-8.7-78.8-9.8c7.3-28,26.6-72.7,26.6-77.2c0.8-6.7-5.8-13.2-19.3-16.9
	c-16.3,29.9-30,61.2-40.9,93.4c-3.7,3.8-9,2.2-12.5,13c0,4.9,7.9,10.2,7.9,14.6c-5.2,28.3-6.7,57.1-4.6,85.7
	c11.1,0.7,22.2-16.5,23.1-21.3c3-22.1,7.5-43.9,13.6-65.4c14.7,0,29.3-1.1,43.8-3c-20.9,17.7-40.8,34.8-40.4,67.9
	c1.2,11.5,10.6,20.5,22.2,21c13.9-2.1,26.5-9.4,35.2-20.3c0.9-0.9,2.4-1,3.3-0.1c0.4,0.3,0.6,0.8,0.7,1.2
	c1.1,11.9,11.4,20.8,23.4,20.1c10.3-2,20-6.1,28.6-12c0.4-0.3,0.9-0.3,1.3,0c3.6,4,11.1,11.1,17.5,11.1c20.3,0,40.9-29.6,52.4-47.8
	c0.7-1,2-1.2,2.9-0.5c0.4,0.3,0.7,0.7,0.8,1.2c4.4,19.6,4.2,47.1,23.9,47.1c6.1-0.2,12.2-1.4,17.9-3.4c1.9-0.6,2.9-2.6,2.3-4.5
	c-0.5-1.7-2.2-2.7-3.9-2.4"/>
<path class="st0" d="M622,318c0,3.6-1.4,7-3.9,9.6c-2.6,2.5-6.1,3.9-9.7,3.9c-1.9,0-3.7-0.3-5.4-1c-1.6-0.6-3-1.6-4.2-2.8
	c-1.2-1.2-2.1-2.6-2.8-4.2c-0.7-1.7-1-3.6-1-5.4c0-3.6,1.4-7,3.9-9.6c1.2-1.2,2.7-2.2,4.3-2.9c1.7-0.7,3.5-1,5.3-1
	c1.9,0,3.7,0.3,5.4,1c3.2,1.3,5.7,3.8,7,7C621.7,314.3,622.1,316.1,622,318z M618.9,318c0-1.5-0.2-3-0.8-4.4
	c-0.5-1.3-1.2-2.5-2.1-3.4c-0.9-1-2.1-1.7-3.3-2.2c-1.3-0.5-2.7-0.8-4.1-0.8c-1.5,0-3,0.2-4.3,0.8c-1.3,0.5-2.4,1.3-3.3,2.3
	c-0.9,1-1.6,2.1-2.1,3.3c-0.5,1.3-0.8,2.7-0.8,4.1c0,1.5,0.2,3,0.8,4.4c0.5,1.3,1.2,2.5,2.1,3.4c0.9,1,2.1,1.7,3.3,2.2
	c2.7,1.1,5.7,1.1,8.5,0c2.5-1.1,4.5-3.1,5.4-5.7c0.5-1.2,0.8-2.6,0.8-3.9V318z M614.8,324.4L614.8,324.4L614.8,324.4h-3.9l0,0l0,0
	l-0.8-2.3c-0.2-0.7-0.5-1.3-1-1.8c-0.5-0.2-1.1-0.2-1.7,0h-1v4.9l0,0h-2.8l0,0V312c-0.1-0.4-0.1-0.8,0-1.2c0.4-0.1,0.8-0.1,1.1,0h4
	h2.4c0.6,0.1,1.2,0.4,1.8,0.8c0.5,0.3,0.9,0.8,1.1,1.3c0.1,0.6,0.1,1.3,0,1.9c0.1,0.9-0.3,1.9-0.9,2.6c-0.7,0.7-1.5,1.1-2.4,1.3
	c0.6,0.2,1.1,0.5,1.6,0.9c0.6,0.6,1,1.3,1.2,2l0.8,2.2c0.2,0.2,0.3,0.5,0.4,0.8L614.8,324.4z M610.9,314.9c0-0.3,0-0.5,0-0.8
	c0-0.2,0-0.4,0-0.6h-0.8h-3.7v3.9h1.6c0.6,0.2,1.4,0.2,2,0C610.9,317,611.3,315.9,610.9,314.9z"/>
</svg>
